<?xml version="1.0" encoding="utf-8" ?>
<svg xmlns="http://www.w3.org/2000/svg" xmlns:xlink="http://www.w3.org/1999/xlink" width="512" height="512">
	<path fill="white" d="M16.2809 311.086C15.8533 299.695 14.6344 288.177 23.0055 279.121C27.0482 274.747 33.3696 272.476 39.25 272.28L81.0999 272.255L159.509 272.264L198.689 272.266L211.348 272.274C214.811 272.293 218.348 272.262 221.75 272.956C227.031 274.033 232.206 277.478 235.269 281.93C237.465 285.12 239.039 289.002 239.402 292.877C239.685 295.893 239.499 299.025 239.493 302.056L239.467 318.405L239.462 371.549L239.521 446.163L239.472 463.76C239.465 468.155 239.821 473.076 238.919 477.375C237.626 483.528 233.622 489.231 228.25 492.463C225.406 494.174 222.063 495.335 218.748 495.55C214.648 495.816 210.444 495.66 206.334 495.664L184.819 495.669L118.446 495.672L64.573 495.69L49.3599 495.934C44.1539 496.045 38.4491 496.255 33.375 494.907C27.5791 493.368 22.5019 489.317 19.5284 484.125C18.2462 481.886 17.3785 479.453 16.836 476.939C16.328 475.097 16.4114 472.996 16.3671 471.091L16.2797 459.82L16.2458 430.205L16.2809 311.086ZM31.7728 296.789C31.4284 301.119 31.555 305.501 31.5547 309.842L31.5602 329.525L31.5478 391.738L31.5362 445.051L31.5503 461.679C31.5579 465.455 31.4393 469.28 31.8403 473.038C32.0805 474.113 32.5492 475.192 33.1615 476.111C34.6668 478.371 36.0994 479.298 38.7349 479.842L40.4286 480.141C43.7126 480.51 47.1215 480.33 50.4228 480.304L65.1185 480.248L114.827 480.231L182.315 480.247L203.974 480.262C207.808 480.264 211.756 480.464 215.573 480.193C217.865 480.031 219.507 479.285 221.265 477.815C223.863 475.642 223.929 473.185 224.256 470.008L224.228 296.899C223.877 295.077 223.713 293.098 222.705 291.489C221.57 289.677 219.823 288.686 217.76 288.311C213.98 287.624 210.111 287.691 206.284 287.685L193.249 287.672L149.536 287.666L77.3887 287.674L54.4621 287.685C50.338 287.688 46.1116 287.51 42 287.758C40.1319 287.871 37.0848 288.11 35.5569 289.217C32.657 291.318 32.2368 293.409 31.7728 296.789ZM224.228 296.899L224.256 470.008C224.615 469.943 224.775 469.821 225.076 469.625L225.113 465.094C225.117 464.648 224.996 463.679 225.128 463.279C225.207 463.041 225.42 462.863 225.501 462.625C225.86 461.576 225.501 459.105 225.501 457.884L225.498 439.893L225.489 348.356L225.498 314.218L225.501 307.915C225.501 307.35 225.666 306.235 225.501 305.75C225.429 305.536 225.196 305.402 225.124 305.188C224.966 304.716 225.113 303.547 225.109 303.018C225.095 301.037 225.297 298.743 224.971 296.812C224.455 296.728 224.703 296.697 224.228 296.899ZM31.8403 473.038C31.4393 469.28 31.5579 465.455 31.5503 461.679L31.5362 445.051L31.5478 391.738L31.5602 329.525L31.5547 309.842C31.555 305.501 31.4284 301.119 31.7728 296.789L31.3818 295.551L31.1085 295.375L30.875 297.926L30.6085 297.625L30.4396 324.389L30.4335 372.308L30.4326 435.873L30.5157 471.005C30.528 471.47 30.4301 472.353 30.7247 472.688L30.8775 472.375C30.9451 473.05 30.8825 473.778 31.2782 474.335C31.4782 473.903 31.5858 473.433 31.8403 473.038ZM16.2809 311.086L16.2458 430.205L16.2797 459.82L16.3671 471.091C16.4114 472.996 16.328 475.097 16.836 476.939L17.1992 476.542L17.613 476.577C17.769 474.964 17.5795 473.36 17.5344 471.745L17.4904 464.125L17.125 463.971L17.0779 354.237L17.0773 326.08L17.0773 318.74C17.077 317.48 17.2081 316.047 16.9729 314.812L16.6275 314.875L16.6275 370.625L16.6473 329.534L16.6382 317.68C16.636 315.72 16.9991 312.901 16.2809 311.086Z"/>
	<path fill="white" fill-opacity="0.96078432" d="M16.2809 311.086C16.9991 312.901 16.636 315.72 16.6382 317.68L16.6473 329.534L16.6275 370.625L16.6275 314.875L16.9729 314.812C17.2081 316.047 17.077 317.48 17.0773 318.74L17.0773 326.08L17.0779 354.237L17.125 463.971L17.4904 464.125L17.5344 471.745C17.5795 473.36 17.769 474.964 17.613 476.577L17.1992 476.542L16.836 476.939C16.328 475.097 16.4114 472.996 16.3671 471.091L16.2797 459.82L16.2458 430.205L16.2809 311.086Z"/>
	<path fill="white" fill-opacity="0.92156863" d="M31.8403 473.038C31.5858 473.433 31.4782 473.903 31.2782 474.335C30.8825 473.778 30.9451 473.05 30.8775 472.375L30.7247 472.688C30.4301 472.353 30.528 471.47 30.5157 471.005L30.4326 435.873L30.4335 372.308L30.4396 324.389L30.6085 297.625L30.875 297.926L31.1085 295.375L31.3818 295.551L31.7728 296.789C31.4284 301.119 31.555 305.501 31.5547 309.842L31.5602 329.525L31.5478 391.738L31.5362 445.051L31.5503 461.679C31.5579 465.455 31.4393 469.28 31.8403 473.038Z"/>
	<path fill="white" fill-opacity="0.96470588" d="M224.228 296.899C224.703 296.697 224.455 296.728 224.971 296.812C225.297 298.743 225.095 301.037 225.109 303.018C225.113 303.547 224.966 304.716 225.124 305.188C225.196 305.402 225.429 305.536 225.501 305.75C225.666 306.235 225.501 307.35 225.501 307.915L225.498 314.218L225.489 348.356L225.498 439.893L225.501 457.884C225.501 459.105 225.86 461.576 225.501 462.625C225.42 462.863 225.207 463.041 225.128 463.279C224.996 463.679 225.117 464.648 225.113 465.094L225.076 469.625C224.775 469.821 224.615 469.943 224.256 470.008L224.228 296.899Z"/>
	<path fill="white" d="M54.715 328.303C58.721 328.078 62.8187 328.245 66.8361 328.245L88.5882 328.249L155.379 328.239L187.168 328.232L196.247 328.241C197.939 328.246 199.782 328.11 201.444 328.441L201.75 328.507C202.577 328.666 203.27 328.932 204.006 329.359C205.531 330.245 206.783 332.148 207.191 333.858C208.21 338.129 207.551 342.913 207.506 347.274L207.462 366.464L207.414 410.156L207.555 428.771C207.465 431.129 207.601 434.247 206.276 436.275C204.798 438.535 202.825 439.182 200.309 439.707C193.76 440.148 187.301 439.673 180.753 439.628L145.26 439.636L86.7337 439.655L56.6975 439.641C55.1148 439.594 53.3521 439.519 51.9383 438.755C50.3384 437.891 49.1035 436.154 48.625 434.418C47.3992 429.971 48.294 424.453 48.2975 419.848L48.2784 393.536L48.2365 358.116L48.0493 338.944C48.1222 336.772 48.1499 333.596 49.3464 331.738C50.6401 329.729 52.4515 328.833 54.715 328.303ZM81.1635 343.851L77.1727 343.979L109.287 372.876C115.049 378.001 120.69 383.824 126.947 388.324L128.067 389.135L153.232 366.824L167.829 354.037C171.641 350.631 175.246 346.87 179.537 344.042L81.1635 343.851ZM83.8466 424.064L176.65 424.275C177.529 424.115 178.37 424.084 179.262 424.066L145.973 394.513L145.798 394.329L145.41 394.834C144.445 396.028 143.191 397.06 142.048 398.084C138.453 401.308 134.453 404.392 129.504 404.914C128.178 405.054 126.9 404.811 125.603 404.553C123.83 404.201 122.318 403.88 120.693 403.016C116.917 401.01 113.641 397.397 110.312 394.697L76.6721 424.082L83.8466 424.064ZM191.553 354.375L157.646 384.032L174.578 399.019L185.176 408.304C187.558 410.388 190.163 412.47 192.251 414.845L191.991 354.625L191.553 354.375ZM63.7818 353.296L63.897 414.724L82.0018 398.421L98.1867 384.309L63.7818 353.296ZM83.8466 424.064C84.7297 424.32 85.4572 424.407 86.375 424.42L84.868 424.65C85.4662 424.724 86.0132 424.68 86.5 425.049L153.808 424.905L169.953 424.865C170.897 424.858 173.054 425.139 173.848 424.834C173.962 424.79 174.033 424.676 174.125 424.598C174.951 424.559 175.886 424.603 176.65 424.275L83.8466 424.064Z"/>
	<path fill="white" fill-opacity="0.9254902" d="M83.8466 424.064L176.65 424.275C175.886 424.603 174.951 424.559 174.125 424.598C174.033 424.676 173.962 424.79 173.848 424.834C173.054 425.139 170.897 424.858 169.953 424.865L153.808 424.905L86.5 425.049C86.0132 424.68 85.4662 424.724 84.868 424.65L86.375 424.42C85.4572 424.407 84.7297 424.32 83.8466 424.064Z"/>
	<path fill="white" d="M44.4772 16.1171L79.7526 16.0889L144.761 16.2348L191.141 16.2552L217.565 16.4424C220.014 16.578 222.537 16.9479 224.82 17.8797C230.022 20.0017 234.862 24.1299 236.995 29.4252L237.37 30.3053C237.617 30.8076 237.834 31.2635 237.977 31.8071C238.328 33.1411 238.876 34.4079 239.016 35.7894C239.982 45.3372 239.499 55.2409 239.512 64.849L239.522 116.17L239.612 192.327L239.602 218.169L239.528 230.305C239.473 233.059 239.495 236.241 238.642 238.879C237.477 242.485 235.781 245.917 233.098 248.655C229.76 252.06 224.75 254.812 220.004 255.444C217.262 255.809 214.299 255.636 211.529 255.664L93.9717 255.69L59.8301 255.702C52.4818 255.758 45.3115 256.256 37.9597 255.604C34.3517 255.284 31.1605 254.416 28.0162 252.603C23.1259 249.783 18.7206 244.712 17.2799 239.179C16.7482 237.137 16.435 235.373 16.3587 233.25L16.2292 188.421L16.2221 103.711L16.2054 59.7652C16.1932 51.8142 15.4367 43.6198 16.6228 35.7397C17.3101 31.1732 20.0049 26.3519 23.1498 23.0188C28.8418 16.9861 36.7012 16.3814 44.4772 16.1171ZM31.7581 41.8635L31.6862 180.109L31.6228 214.386L31.5649 225.318C31.5656 227.596 31.4414 230.036 31.8416 232.283C32.1406 233.905 32.5624 235.199 33.5118 236.585C34.7417 238.381 36.0068 239.347 38.1379 239.749L38.625 239.837L41.4672 240.228C45.1216 240.476 48.8839 240.282 52.5484 240.266L70.7464 240.259L132.422 240.278L188.11 240.272L205.134 240.275C208.529 240.285 212.034 240.453 215.417 240.18C218.098 239.964 219.834 239.281 221.814 237.459C224.728 234.777 224.158 229.321 224.288 225.653L224.28 41.0179C223.94 38.2358 223.711 35.3937 221.223 33.6088C220.155 32.8421 218.904 32.4534 217.625 32.2458C212.617 31.4331 207.532 31.6472 202.471 31.6447L182.549 31.6541L112.289 31.6917L63.6669 31.6865L49.625 31.6853C46.6599 31.6853 43.5946 31.5161 40.6513 31.8832C37.6638 32.2557 35.3423 32.5822 33.3733 35.149C31.7734 37.2347 32.1464 39.4716 31.7581 41.8635ZM30.9699 51.9338L30.7377 50.0644L30.4683 50.125L30.4402 64.51C30.4363 66.695 30.2066 69.1893 30.5265 71.3358L30.625 231.75L30.7724 231.272C30.9835 231.907 31.0111 232.587 31.0864 233.25L31.375 233.299L31.5132 232.939C31.6985 232.469 31.6057 232.649 31.8416 232.283C31.4414 230.036 31.5656 227.596 31.5649 225.318L31.6228 214.386L31.6862 180.109L31.7581 41.8635L31.5901 41.4111C31.3272 40.6549 31.3682 39.8695 31.375 39.0801L31.1203 39.25L30.9699 51.9338ZM224.28 41.0179L224.288 225.653C224.881 224.299 224.22 222.25 224.92 221.058C225.419 220.207 225.065 214.707 225.065 213.183L225.06 184.362L225.103 39.625L224.585 39.2512L224.28 41.0179Z"/>
	<path fill="white" fill-opacity="0.96078432" d="M224.28 41.0179L224.585 39.2512L225.103 39.625L225.06 184.362L225.065 213.183C225.065 214.707 225.419 220.207 224.92 221.058C224.22 222.25 224.881 224.299 224.288 225.653L224.28 41.0179Z"/>
	<path fill="white" fill-opacity="0.91764706" d="M30.9699 51.9338L31.1203 39.25L31.375 39.0801C31.3682 39.8695 31.3272 40.6549 31.5901 41.4111L31.7581 41.8635L31.6862 180.109L31.6228 214.386L31.5649 225.318C31.5656 227.596 31.4414 230.036 31.8416 232.283C31.6057 232.649 31.6985 232.469 31.5132 232.939L31.375 233.299L31.0864 233.25C31.0111 232.587 30.9835 231.907 30.7724 231.272L30.625 231.75L30.5265 71.3358C30.2066 69.1893 30.4363 66.695 30.4402 64.51L30.4683 50.125L30.7377 50.0644L30.9699 51.9338ZM30.5265 71.3358C30.6559 71.3933 30.5511 72.848 30.875 73.3529L30.9699 51.9338L30.7377 50.0644L30.4683 50.125L30.4402 64.51C30.4363 66.695 30.2066 69.1893 30.5265 71.3358Z"/>
	<path fill="white" fill-opacity="0.96470588" d="M30.5265 71.3358C30.2066 69.1893 30.4363 66.695 30.4402 64.51L30.4683 50.125L30.7377 50.0644L30.9699 51.9338L30.875 73.3529C30.5511 72.848 30.6559 71.3933 30.5265 71.3358Z"/>
	<path fill="white" d="M82.0186 42.0499L82.6187 42.0034C84.5134 41.9055 86.6172 42.9538 88.1311 44.0326C92.1035 46.8633 95.6212 51.2419 99.0722 54.7043L124.885 80.2198C127.367 82.4877 130.288 85.2827 130.32 88.875C130.336 90.6566 129.95 92.1437 129.011 93.6522C127.574 95.9594 125.14 97.8558 123.211 99.761L111.76 111.247C106.748 116.527 103.959 122.783 104.257 130.154C104.558 137.607 108.536 143.862 113.961 148.763C118.352 152.731 124.05 155.228 130 155C133.902 154.85 137.49 154.245 141.002 152.45C145.08 150.365 148.21 146.706 151.415 143.52L158.462 136.59C160.623 134.358 162.663 131.864 165.299 130.167C166.54 129.368 168.474 128.622 169.973 128.612C172.385 128.597 175.012 130.496 176.684 132.068L201.763 157.113L209.264 164.56C211.29 166.517 213.488 168.437 215.228 170.657C216.44 172.203 217.489 173.938 217.461 175.981C217.396 180.721 212.671 184.19 209.612 187.257L202.551 194.337C197.054 199.854 191.587 204.798 184.918 208.875C167.666 219.421 147.816 222.093 128.283 217.189C120.635 215.269 112.42 211.341 106.02 206.754C100.681 202.928 96.1344 198.293 91.5319 193.642L78.912 180.987L66.4917 168.605C62.9439 165.107 59.3378 161.701 56.125 157.882C53.5498 154.822 51.3827 151.416 49.3472 147.984C41.6108 134.94 38.3151 119.034 40.1819 104C40.4616 101.747 40.6752 99.4761 41.2532 97.2734C42.116 93.9857 42.8523 90.7089 44.0158 87.5C47.3906 78.1929 52.6794 69.5501 59.3238 62.2221C62.2259 59.0214 65.4789 56.0719 68.57 53.0494L73.9246 47.7384C75.2625 46.3823 76.5669 44.8965 78.1233 43.7903L78.5 43.527C79.6294 42.7291 80.7062 42.4107 82.0186 42.0499ZM55.2702 112.809C55.2748 113.218 55.3976 114.079 55.2662 114.433L56.3571 122.413C57.7136 129.913 60.924 137.373 65.2105 143.66C69.1801 149.483 74.2928 154.333 79.3071 159.229L91.0894 170.911C99.1276 178.911 106.765 188.259 116.232 194.564C122.792 198.933 130.46 201.886 138.217 203.293C142.56 204.081 147.134 203.97 151.519 203.584C154.958 203.281 158.407 202.97 161.767 202.13C168.77 200.379 174.868 196.772 180.735 192.699C180.549 192.192 179.911 191.684 179.526 191.292L176.355 188.104L157.61 169.447L154.004 165.8C153.661 165.423 153.19 164.662 152.785 164.39C152.675 164.316 152.544 164.248 152.411 164.249C152.142 164.249 150.607 165.241 150.215 165.435C148.22 166.423 146.17 167.359 144.069 168.101C134.191 171.589 122.964 171.458 113.456 166.862C102.839 161.73 94.2429 152.301 90.5034 141.075C87.5357 132.166 88.0858 122.114 91.6932 113.47C92.6704 111.128 93.999 109.017 95.1366 106.759L66.6172 78.3568C61.6459 85.417 58.0065 92.8967 56.3301 101.422C55.5871 105.2 55.421 108.972 55.2702 112.809ZM82.7755 61.375L77.3327 66.5369C77.5853 67.3677 78.3655 67.7827 78.9396 68.3931L84.0816 73.5231L99.308 88.6712L103.744 93.1285C104.199 93.5811 104.942 94.4744 105.492 94.7545L105.885 94.875L111.752 89.5123L83.5024 61.2474L82.7755 61.375ZM169.92 147.891L164.093 153.573L164.313 153.739C166.137 155.146 167.696 156.954 169.33 158.577L178.79 167.983L187.719 176.897C189.344 178.515 191.169 180.093 192.59 181.886L198.106 176.374C195.053 172.467 191.246 169.115 187.736 165.621L169.92 147.891ZM55.2662 114.433C55.3976 114.079 55.2748 113.218 55.2702 112.809L55.207 112.598C54.6698 110.607 55.6257 107.534 54.8125 105.876L54.6843 105.594L54.5812 105.375L54.4792 119L54.7768 119.07C55.4946 117.624 54.6782 115.915 55.2662 114.433Z"/>
	<path fill="white" fill-opacity="0.96078432" d="M55.2662 114.433C54.6782 115.915 55.4946 117.624 54.7768 119.07L54.4792 119L54.5812 105.375L54.6843 105.594L54.8125 105.876C55.6257 107.534 54.6698 110.607 55.207 112.598L55.2702 112.809C55.2748 113.218 55.3976 114.079 55.2662 114.433Z"/>
	<path fill="white" d="M272.671 36.5555L272.944 34.2735C273.599 31.0182 275.361 27.7695 277.315 25.125L277.566 24.7799C281.117 19.9804 286.547 17.3648 292.375 16.515C295.65 16.0374 299.173 16.2592 302.479 16.2618L318.206 16.2671L374.682 16.2581L442.873 16.2579L463.458 16.2655C467.428 16.268 471.597 16.0341 475.541 16.4823C479.737 16.959 483.607 18.8372 486.934 21.3897C491.255 24.7061 493.485 28.8032 494.881 33.978C496.199 38.8637 495.588 44.9556 495.585 50.008L495.554 71.6164L495.537 150.279L495.54 207.374L495.475 224.328C495.461 227.726 495.549 231.165 495.309 234.556C495.037 238.407 493.84 241.471 491.875 244.762C490.074 247.779 487.182 250.481 484.125 252.215C480.439 254.305 477.472 255.235 473.287 255.807C470.071 256.247 466.726 255.806 463.5 255.724L452.568 255.665L396.354 255.672L390.031 255.882C388.128 256.008 385.71 256.261 383.875 255.751C383.713 256.049 383.601 256.145 383.617 256.491L383.807 281.415L385.765 280.896C391.28 279.419 398.956 280.339 403.883 283.295C407.634 285.546 410.709 288.695 412.782 292.54L414.698 296.413C414.766 296.565 415.113 297.507 415.214 297.577C415.247 297.599 415.698 297.534 415.734 297.526C416.947 297.256 418.059 296.815 419.306 296.632C423.097 296.076 426.761 296.377 430.458 297.269C433.868 298.092 436.992 300.079 439.686 302.253C443.244 305.122 445.359 309.667 447.251 313.703C453.567 311.881 461.248 311.782 467.151 315.077C473.139 318.418 476.983 322.961 478.806 329.583C479.448 331.916 479.586 334.301 479.662 336.707L479.559 357.623L479.607 411.181L479.513 432.623C479.488 435.513 479.869 439.07 479.244 441.875L479.164 442.243C478.582 444.775 476.734 447.036 475.26 449.125L467.553 460.478C466.239 462.46 464.663 464.448 463.86 466.711C463.388 468.04 463.552 470.049 463.528 471.465L463.48 480.869C463.491 484.23 464.16 489.114 462.314 492.05L462.114 492.38C461.083 494.043 459.715 494.967 457.827 495.435C456.346 495.802 454.707 495.681 453.19 495.685L445.074 495.693L416.399 495.687L363.362 495.685L352.339 495.764C350.077 495.827 347.85 496.058 345.582 495.994C344.116 495.953 341.493 495.666 340.264 494.938C338.741 494.035 337.693 492.986 336.959 491.375L336.834 491.114C336.064 489.397 336.239 486.888 336.182 485.035L335.967 472.621C335.954 471.288 336.142 469.085 335.712 467.818C335.562 467.377 334.897 466.706 334.587 466.296C333.115 464.345 331.455 462.55 329.843 460.716L319.137 448.028C317.235 445.766 314.935 443.603 313.491 441C312.282 438.822 311.506 436.318 310.67 433.975L306.875 423.068L293.528 383.904L283.98 356.454C282.105 351.023 279.988 345.853 278.655 340.242C278.064 337.751 278.532 334.687 279.375 332.304L279.532 331.854C280.856 328.098 283.768 325.127 287.338 323.452C289.861 322.267 292.49 321.631 295.203 321.054C301.025 319.815 306.787 319.19 312.543 321.266C318.123 323.279 322.545 327.524 325.017 332.875L330.506 345.25C332.154 348.942 333.7 352.587 336.014 355.923C336.462 352.149 336.302 348.287 336.3 344.489L336.283 327.093L336.286 279.482L336.304 255.985L313.256 255.72C305.953 255.675 297.893 256.636 290.732 255.087C284.415 253.72 279.521 250.104 275.984 244.711C274.25 242.066 272.925 238.847 272.684 235.67L272.585 235.605L272.471 231.323C272.238 229.741 272.346 228.05 272.333 226.45L272.303 217.244L272.272 186.935L272.258 75.9145L272.246 51.602L272.234 42.1324C272.244 40.3905 272.138 38.1958 272.671 36.5555ZM291.747 32.913C289.992 34.3416 288.3 35.8693 288.011 38.2578L287.925 39.25C287.546 43.4975 287.685 47.7887 287.674 52.0526L287.628 72.2471L287.56 140.474L287.488 203.598L287.484 221.987C287.487 225.634 287.217 229.529 287.796 233.124C288.377 235.084 289.328 236.608 290.735 238.07C291.316 238.673 292.079 239.361 292.907 239.59C294.23 239.957 295.847 239.942 297.22 240.057C301.514 240.416 305.698 240.261 310.01 240.253L336.3 240.291C335.909 236.505 336.175 232.017 336.71 228.25C337.566 222.223 341.12 216.48 345.911 212.795C351.307 208.644 357.8 207.952 364.375 208.791C365.753 208.967 367.159 209.258 368.468 209.734C373.86 211.697 378.678 216.114 380.963 221.388C381.31 222.191 381.768 222.942 381.992 223.791C383.426 229.227 383.738 234.574 383.507 240.196C385.26 240.493 387.376 240.273 389.173 240.268L400.809 240.258L445.841 240.267L461.537 240.295C464.213 240.337 467.207 240.757 469.836 240.462C473.164 240.088 476.286 239.629 478.466 236.735C480 234.7 480.102 232.39 480.2 229.932L480.26 215.037L480.264 188.847L480.265 108.583L480.272 63.0192L480.275 49.2314C480.274 46.1904 480.4 43.0538 480.003 40.0352C479.665 37.4619 478.842 34.8337 476.592 33.2811C474.692 31.9704 470.791 31.8687 468.528 31.7846L428.738 31.6679L353.986 31.6608L314.731 31.6718L303.367 31.6831C301.102 31.6929 298.712 31.574 296.469 31.9172C294.821 32.1694 293.323 32.3144 291.747 32.913ZM400.837 362.588C399.69 359.722 400.289 354.992 400.29 351.864L400.305 334.403C400.314 326.482 399.858 318.22 400.481 310.34C400.464 308.145 400.536 305.879 400.095 303.723L400.003 303.257C399.481 300.707 398.526 298.536 396.258 297.081C394.719 296.094 390.925 295.785 389.25 296.3C387.102 296.961 385.39 298.748 384.456 300.732C383.899 301.917 383.666 303.075 383.566 304.375C383.153 309.742 383.533 315.343 383.551 320.729L383.475 350.585L383.469 357.155C383.484 359.202 383.588 361.256 382.878 363.215C382.234 364.992 380.365 366.581 378.625 367.224C376.688 367.94 374.219 367.945 372.375 366.953C371.361 366.407 370.565 365.731 369.875 364.819L369.665 364.545C368.59 363.087 368.431 361.684 368.411 359.945C368.118 359.439 368.314 356.844 368.312 356.132L368.296 342.949L368.309 268.345L368.359 246.248C368.382 241.332 368.554 236.371 368.255 231.464L368.188 231.123C367.704 228.756 366.59 226.446 364.454 225.134C362.774 224.102 359.542 223.639 357.619 224.085C355.534 224.569 353.504 226.969 352.586 228.78C351.261 231.395 351.483 234.828 351.465 237.683L351.454 247.571L351.49 267.605L351.441 351.651L351.427 379.142C351.429 383.303 351.718 387.579 351.464 391.723C351.374 393.18 351.136 394.914 350.284 396.125L350.085 396.419C348.959 398.044 347.314 399.061 345.375 399.429C343.47 399.791 341.407 399.58 339.782 398.432C338.226 397.332 337.251 395.62 336.349 393.988C333.46 388.762 331.291 382.99 328.756 377.57L317.056 353.019L312.94 343.724C311.948 341.536 310.741 338.567 308.941 336.933C307.764 335.865 304.513 335.344 302.986 335.555L293.989 337.559L294.118 337.809C295.447 340.481 296.176 343.656 297.113 346.5L300.589 356.218L321.875 418.513C323.37 422.584 324.515 426.827 326.162 430.834C327.779 434.766 330.724 437.574 333.488 440.71L341.828 450.531C344.914 454.146 349.346 458.06 350.875 462.653C351.598 464.823 351.456 467.859 351.484 470.143L351.459 480.281L448.425 480.288L448.354 471.017C448.326 467.906 447.847 464.1 448.836 461.112C449.765 458.306 452.235 455.53 453.883 453.084L459.995 443.82C461.392 441.76 463.494 439.34 464.002 436.875C464.397 434.957 464.288 432.839 464.3 430.888L464.294 420.604L464.266 388.898L464.267 353.597L464.266 342.525C464.264 340.542 464.389 338.471 464.174 336.504C463.893 333.939 463.23 331.444 461.133 329.742C459.271 328.231 456.276 327.731 453.946 328.005C452.161 328.215 450.232 329.591 449.192 331.005C446.634 334.481 447.414 340.599 447.417 344.679L447.447 355.492C447.473 358.102 447.858 362.086 446.324 364.309L446.134 364.589C444.868 366.403 443.192 367.253 441.029 367.573C438.823 367.9 436.963 367.498 435.201 366.044C433.356 364.523 432.438 362.544 432.331 360.191L432.285 331.883C432.283 328.117 432.552 324.107 432.087 320.375C431.766 317.802 431.365 316.341 429.625 314.347L429.401 314.075C428.075 312.515 425.64 312.183 423.701 312.043C421.558 311.888 419.708 312.808 418.153 314.222C416.011 316.173 415.544 319.367 415.473 322.105L415.429 349.662C415.423 353.36 415.724 357.335 415.337 360.994C415.218 362.12 415.015 363.199 414.375 364.153L414.17 364.463C413.1 366.02 411.364 367.169 409.501 367.5C407.259 367.899 405.405 367.724 403.493 366.363C402.164 365.418 401.29 364.151 400.837 362.588ZM287.796 233.124C287.217 229.529 287.487 225.634 287.484 221.987L287.488 203.598L287.56 140.474L287.628 72.2471L287.674 52.0526C287.685 47.7887 287.546 43.4975 287.925 39.25L288.011 38.2578C288.3 35.8693 289.992 34.3416 291.747 32.913L291.317 32.5243L291.572 32.4058C291.979 32.2095 291.83 32.2849 292.266 32L292.025 31.6338C291.546 31.8371 291.254 32.059 290.847 32.375L290.593 32.3009C290.067 32.7123 289.716 33.0934 289.25 33.5573L288.984 33.7781C288.629 34.0763 288.808 33.8916 288.506 34.375C288.195 34.8722 287.969 35.2936 287.476 35.625C286.971 36.9109 286.955 37.8233 286.75 39.125L286.688 39.6262L286.578 39.8392C286.347 40.3826 286.463 41.2038 286.463 41.7898L286.477 47L286.424 67.3831L286.376 177.717L286.378 214.618L286.413 233.375L286.625 233.623L286.873 233.25C286.996 233.729 286.884 233.678 287.349 233.958L287.796 233.124ZM368.255 231.464C368.554 236.371 368.382 241.332 368.359 246.248L368.309 268.345L368.296 342.949L368.312 356.132C368.314 356.844 368.118 359.439 368.411 359.945L368.834 359.778L369.222 360.279C369.161 361.146 369.038 361.934 369.375 362.761L369.694 362.217C369.233 359.345 369.502 356.146 369.505 353.239L369.517 337.02L369.525 267.242L369.541 245.226L369.515 232.916C369.466 231.938 369.411 230.707 368.875 229.877L368.627 230.125C368.667 230.574 368.659 230.73 368.441 231.146L368.255 231.464ZM272.471 231.323C272.755 230.206 272.655 228.904 272.721 227.75L272.955 218.643L273.016 192.139L272.989 178.352L272.979 151.399L272.969 69.9099L273.018 48.9705L273.044 42.5602C273.042 41.4925 273.178 40.147 272.866 39.1285C272.607 38.2829 272.778 37.4283 272.671 36.5555C272.138 38.1958 272.244 40.3905 272.234 42.1324L272.246 51.602L272.258 75.9145L272.272 186.935L272.303 217.244L272.333 226.45C272.346 228.05 272.238 229.741 272.471 231.323ZM400.481 310.34C399.858 318.22 400.314 326.482 400.305 334.403L400.29 351.864C400.289 354.992 399.69 359.722 400.837 362.588L401.019 362.487L401.49 362.436L401.811 362C401.344 360.016 401.499 357.958 401.511 355.935L401.517 347.195L401.524 314.875L401.125 314.75C401.141 314.168 401.165 313.655 401.018 313.086C400.899 312.625 400.907 312.8 400.902 312.409C400.891 311.605 400.779 311.09 400.481 310.34ZM273.016 192.139L272.955 218.643L272.721 227.75C272.655 228.904 272.755 230.206 272.471 231.323L272.585 235.605L272.684 235.67C272.992 235.147 272.819 233.198 272.854 232.501L273.123 232.625L273.058 234.646C273.073 235.383 272.925 236.097 273.472 236.628C273.883 235.87 273.679 234.934 273.641 234.101L273.54 228.711L273.515 202C272.732 200.892 273.518 194.105 273.016 192.139Z"/>
	<path fill="white" fill-opacity="0.96862745" d="M273.016 192.139C273.518 194.105 272.732 200.892 273.515 202L273.54 228.711L273.641 234.101C273.679 234.934 273.883 235.87 273.472 236.628C272.925 236.097 273.073 235.383 273.058 234.646L273.123 232.625L272.854 232.501C272.819 233.198 272.992 235.147 272.684 235.67L272.585 235.605L272.471 231.323C272.755 230.206 272.655 228.904 272.721 227.75L272.955 218.643L273.016 192.139Z"/>
	<path fill="white" fill-opacity="0.97254902" d="M400.481 310.34C400.779 311.09 400.891 311.605 400.902 312.409C400.907 312.8 400.899 312.625 401.018 313.086C401.165 313.655 401.141 314.168 401.125 314.75L401.524 314.875L401.517 347.195L401.511 355.935C401.499 357.958 401.344 360.016 401.811 362L401.49 362.436L401.019 362.487L400.837 362.588C399.69 359.722 400.289 354.992 400.29 351.864L400.305 334.403C400.314 326.482 399.858 318.22 400.481 310.34Z"/>
	<path fill="white" fill-opacity="0.91764706" d="M272.471 231.323C272.238 229.741 272.346 228.05 272.333 226.45L272.303 217.244L272.272 186.935L272.258 75.9145L272.246 51.602L272.234 42.1324C272.244 40.3905 272.138 38.1958 272.671 36.5555C272.778 37.4283 272.607 38.2829 272.866 39.1285C273.178 40.147 273.042 41.4925 273.044 42.5602L273.018 48.9705L272.969 69.9099L272.979 151.399L272.989 178.352L273.016 192.139L272.955 218.643L272.721 227.75C272.655 228.904 272.755 230.206 272.471 231.323Z"/>
	<path fill="white" fill-opacity="0.96862745" d="M368.255 231.464L368.441 231.146C368.659 230.73 368.667 230.574 368.627 230.125L368.875 229.877C369.411 230.707 369.466 231.938 369.515 232.916L369.541 245.226L369.525 267.242L369.517 337.02L369.505 353.239C369.502 356.146 369.233 359.345 369.694 362.217L369.375 362.761C369.038 361.934 369.161 361.146 369.222 360.279L368.834 359.778L368.411 359.945C368.118 359.439 368.314 356.844 368.312 356.132L368.296 342.949L368.309 268.345L368.359 246.248C368.382 241.332 368.554 236.371 368.255 231.464Z"/>
	<path fill="white" fill-opacity="0.95294118" d="M287.796 233.124L287.349 233.958C286.884 233.678 286.996 233.729 286.873 233.25L286.625 233.623L286.413 233.375L286.378 214.618L286.376 177.717L286.424 67.3831L286.477 47L286.463 41.7898C286.463 41.2038 286.347 40.3826 286.578 39.8392L286.688 39.6262L286.75 39.125C286.955 37.8233 286.971 36.9109 287.476 35.625C287.969 35.2936 288.195 34.8722 288.506 34.375C288.808 33.8916 288.629 34.0763 288.984 33.7781L289.25 33.5573C289.716 33.0934 290.067 32.7123 290.593 32.3009L290.847 32.375C291.254 32.059 291.546 31.8371 292.025 31.6338L292.266 32C291.83 32.2849 291.979 32.2095 291.572 32.4058L291.317 32.5243L291.747 32.913C289.992 34.3416 288.3 35.8693 288.011 38.2578L287.925 39.25C287.546 43.4975 287.685 47.7887 287.674 52.0526L287.628 72.2471L287.56 140.474L287.488 203.598L287.484 221.987C287.487 225.634 287.217 229.529 287.796 233.124Z"/>
	<path fill="white" d="M321.25 117.414C323.669 100.784 333.303 85.9868 346.638 75.993C358.963 66.7555 376.531 62.5806 391.765 64.7477C395.331 65.255 399.007 65.8107 402.464 66.8352C415.61 70.7303 427.019 79.2266 435.165 90.1674C438.096 94.1044 440.798 98.6009 442.583 103.188L444.716 109.422C445.045 110.291 445.121 111.103 445.319 111.997C445.518 112.889 445.888 113.74 446.059 114.642C447.222 120.765 447.553 126.72 447.491 132.941C447.448 137.218 447.338 141.583 445.563 145.56C442.813 151.723 437.809 156.076 431.55 158.412C426.63 160.248 419.427 159.954 414.643 157.751C411.106 156.122 408.427 153.623 405.491 151.165L405.3 151.366C402.465 154.236 397.337 156.956 393.472 158.074C388.334 159.561 383.026 160.166 377.706 159.098C373.583 158.271 370.086 156.654 366.437 154.599C360.07 151.013 355.791 144.301 353.331 137.613C352.016 133.023 351.322 128.272 352.03 123.5C352.275 121.85 352.782 120.198 353.154 118.568C355.964 110.339 360.743 103.213 368.776 99.2927C376.532 95.508 386.429 94.6646 394.617 97.5632C400.962 99.8092 406.556 104.099 410.068 109.875C411.31 111.919 412.623 114.159 413.382 116.438L413.746 117.353C414.011 117.982 414.127 118.594 414.268 119.258C414.839 121.937 415.215 124.154 415.305 126.923C415.413 130.236 414.918 134.348 415.791 137.5L415.908 137.93C416.557 140.175 418.137 142.188 420.25 143.224C421.132 143.657 422.045 143.865 423 144.039C425.279 144.454 426.74 143.837 428.662 142.625C429.075 142.364 429.41 142.082 429.765 141.75L430.025 141.511C431.513 140.08 431.782 138.078 432.112 136.15C432.843 131.87 432.42 126.973 431.743 122.705C430.435 114.455 428.275 107.05 423.323 100.147C417.193 91.6017 408.9 85.4874 398.947 82.1477C397.14 81.5411 395.32 80.8439 393.43 80.5285C380.53 78.376 366.464 81.2511 355.798 88.9922C352.951 91.0582 350.049 93.3431 347.734 96L347.489 96.2766C345.876 98.118 344.576 100.201 343.308 102.285C339.145 109.13 336.458 116.239 335.805 124.255C335.668 125.94 335.418 127.687 335.546 129.375C335.722 131.69 335.762 134.37 336.233 136.625C336.712 138.917 337.615 141.112 338.173 143.362C338.75 145.69 340.311 148.469 341.52 150.535C345.548 157.417 350.726 164.312 357.673 168.494C364.288 172.478 370.674 174.789 378.363 175.801C380.825 176.125 383.367 176.071 385.85 176.172L407.659 176.335C410.701 176.333 414.707 175.871 417.625 176.638C420.094 177.286 422.415 178.909 423.096 181.486C423.429 182.745 423.527 184.098 423.286 185.375L423.205 185.817C423.021 186.763 422.834 187.362 422.262 188.125L422.049 188.418C420.828 190.07 418.881 191.354 416.822 191.653C410.906 192.513 404.625 191.697 398.659 191.673L382.987 191.923C369.41 191.495 356.135 187.04 345.347 178.747C335.485 171.167 327.417 159.936 323.56 148.134C322.679 145.44 321.797 142.516 321.45 139.695L321.408 139.173C320.537 135.157 320.447 131.24 320.471 127.151C320.489 123.973 320.557 120.521 321.25 117.414ZM382.008 112.078C379.32 112.457 377.399 112.998 375.125 114.482L374.763 114.706C371.396 116.832 368.971 121.457 368.173 125.253C367.717 127.425 367.848 129.561 368.112 131.744C368.522 135.144 371.997 138.964 374.608 140.945C377.542 143.17 381.662 144.581 385.383 144.028L386.187 143.895L387.937 143.5C391.973 142.596 395.777 139.485 397.915 136.015C400.025 132.592 400.646 128.405 399.659 124.509C398.745 120.9 396.717 117.514 393.75 115.246L393.459 115.017C390.353 112.62 385.832 111.886 382.008 112.078ZM321.408 139.173L321.473 139.202L321.751 139.499L322.123 139.25C322.157 138.039 322.175 136.566 321.898 135.375C321.61 134.139 321.7 132.817 321.649 131.523L321.606 121.279C321.59 120.876 321.406 120.626 321.318 120.25C321.129 119.437 321.257 118.266 321.25 117.414C320.557 120.521 320.489 123.973 320.471 127.151C320.447 131.24 320.537 135.157 321.408 139.173ZM353.331 137.613L353.582 137.465L353.875 137.623C354.261 137.237 354.177 136.661 354.123 136.125C354.043 135.338 353.673 134.564 353.534 133.774C352.952 130.464 352.465 126.026 353.364 122.783C353.578 122.01 353.606 121.299 353.623 120.5C353.223 119.899 353.239 119.271 353.154 118.568C352.782 120.198 352.275 121.85 352.03 123.5C351.322 128.272 352.016 133.023 353.331 137.613Z"/>
	<path fill="white" fill-opacity="0.97254902" d="M353.331 137.613C352.016 133.023 351.322 128.272 352.03 123.5C352.275 121.85 352.782 120.198 353.154 118.568C353.239 119.271 353.223 119.899 353.623 120.5C353.606 121.299 353.578 122.01 353.364 122.783C352.465 126.026 352.952 130.464 353.534 133.774C353.673 134.564 354.043 135.338 354.123 136.125C354.177 136.661 354.261 137.237 353.875 137.623L353.582 137.465L353.331 137.613Z"/>
	<path fill="white" fill-opacity="0.95294118" d="M321.408 139.173C320.537 135.157 320.447 131.24 320.471 127.151C320.489 123.973 320.557 120.521 321.25 117.414C321.257 118.266 321.129 119.437 321.318 120.25C321.406 120.626 321.59 120.876 321.606 121.279L321.649 131.523C321.7 132.817 321.61 134.139 321.898 135.375C322.175 136.566 322.157 138.039 322.123 139.25L321.751 139.499L321.473 139.202L321.408 139.173Z"/>
</svg>
