<?xml version="1.0" encoding="utf-8" ?>
<svg xmlns="http://www.w3.org/2000/svg" xmlns:xlink="http://www.w3.org/1999/xlink" width="512" height="512">
	<path fill="white" d="M0 358.818L0 -0L512 0L512 359.557L512 370.683L512 512L-0 512L0 370.962L0 358.818ZM0 358.818C1.21747 357.337 1.27951 354.275 1.56543 352.424C1.98429 349.714 2.40889 346.976 3.05975 344.309C7.6774 325.392 16.5149 308.417 30.073 294.334C33.33 290.95 36.5884 287.744 40.3401 284.894C44.0313 282.09 47.9023 279.59 51.8583 277.182C54.3488 275.666 56.7986 274.438 59.1381 272.65L54.8725 269.266C45.0466 261.622 36.2932 251.064 30.9685 239.817C26.8373 231.091 24.4472 221.717 23.2591 212.165C20.6777 191.412 27.6943 168.078 40.625 151.732C54.3129 134.429 74.5123 123.281 96.3877 120.737C102.076 120.979 107.816 121.447 113.5 120.83C114.577 120.713 115.686 120.895 116.766 120.747C127.973 121.79 137.763 125.828 147.719 130.818C149.439 125.119 151.844 119.706 154.552 114.42C165.306 93.4311 182.012 76.6708 202.775 65.5151C229.026 51.4108 261.164 48.8907 289.598 57.586C303.19 61.7428 315.895 68.748 327.026 77.5264C331.966 81.423 337.051 85.9901 341.018 90.8978C345.252 96.1355 350.055 101.362 353.223 107.356L354.565 109.682L358.95 117.75C360.98 121.832 362.638 126.239 364.312 130.477C374.237 125.498 384.34 122 395.418 120.743L397.763 120.806C398.189 120.807 398.506 120.857 398.92 120.921C403.453 121.623 408.926 121.111 413.5 120.802C414.427 120.739 415.367 120.869 416.288 120.746C437.652 122.952 457.238 134.458 470.704 151.017C475.73 157.198 479.425 164.088 482.417 171.441C483.491 174.08 484.672 176.923 485.302 179.696C486.206 183.673 487.348 187.569 487.943 191.625C488.141 192.974 488.121 194.385 488.252 195.748C489.924 213.135 486.632 230.725 477.481 245.767C472.941 253.228 467.643 259.441 461.375 265.492C458.693 268.081 455.635 270.964 452.255 272.565C455.564 274.293 458.657 276.419 461.797 278.43C465.633 280.888 469.503 283.439 473.038 286.318C483.934 295.191 492.656 306.252 499.125 318.693C500.848 322.005 502.959 325.73 504.042 329.295C504.568 331.029 505.392 332.672 505.963 334.375C506.478 335.909 506.801 337.57 507.236 339.125C507.426 339.803 507.806 340.441 507.968 341.125L509.995 350.125C510.512 352.708 510.253 357.588 512 359.557L512 0L0 -0L0 358.818ZM0 370.962L-0 512L512 512L512 370.683C510.985 372.246 510.246 374.005 509.15 375.505C507.778 377.382 505.742 378.838 503.64 379.814C500.733 381.164 497.416 381.984 494.375 383.01L471.125 390.524L391.058 416.303L298.636 446.33L272.922 454.625C268.554 456.074 263.991 458.074 259.521 459.056C257.295 459.546 255.093 459.683 252.875 459.071L245.875 456.812L230.264 451.922L189.674 438.591L77.875 402.296L29.1568 386.612L12.25 381.245C10.0659 380.432 7.76283 379.703 5.78211 378.444C2.73129 376.506 1.85373 373.832 0 370.962ZM248.631 281.102C245.022 281.447 241.357 281.685 237.779 282.271C223.657 284.584 209.136 289.552 196.625 296.516L189.06 301.216C185.363 303.421 181.772 306.285 178.441 309.005C158.769 325.075 144.146 348.188 138.088 372.872C136.813 378.067 135.971 383.342 135.429 388.663C135.239 390.539 134.896 392.538 134.882 394.418C139.937 395.728 144.924 397.505 149.883 399.146L169.176 405.469L228.566 424.71L247.35 430.786L253.5 432.795C254.186 433.006 255.261 433.487 255.953 433.531C256.296 433.553 257.206 433.156 257.559 433.05L262.185 431.591L290.076 422.734L317.825 413.598L342.107 405.847L366.125 397.99C369.552 396.898 373.439 395.159 376.996 394.819C375.613 375.493 370.342 357.32 360.46 340.584C358.426 337.139 355.969 333.845 353.62 330.606C348.204 323.138 342.154 316.159 335.137 310.134C327.737 303.781 319.543 298.129 310.767 293.851C305.21 291.142 299.341 289.041 293.48 287.102C279.245 282.392 263.831 279.938 248.821 281.08L248.631 281.102ZM345.203 170.243L344.193 153.984C341.154 132.174 329.56 112.062 312.749 97.9752C309.416 95.1821 305.732 92.6716 302.046 90.375C300.713 89.5447 299.302 88.917 297.989 88.0454C297.421 88.079 295.301 86.7398 294.787 86.4428C288.504 84.0958 282.594 81.58 276.044 79.9453C254.185 74.4898 229.206 78.5881 210 90.2733L207.09 92.1488L204.098 94.2168C201.163 95.9809 198.304 98.7893 195.784 101.129C191.702 104.918 187.76 108.889 184.371 113.323C179.399 119.829 175.787 127.162 172.794 134.75C171.375 138.347 169.995 142.079 169.101 145.844C167.95 150.69 167.371 155.311 166.91 160.252C166.696 162.544 166.402 164.852 166.476 167.159C166.535 169.01 166.886 170.812 167.08 172.648L169.178 187.558C169.51 189.651 170.326 191.753 170.96 193.75C171.264 194.709 171.351 195.487 171.798 196.425C172.444 197.782 172.83 199.379 173.426 200.786C175.12 204.785 177.152 208.683 179.342 212.432C189.647 230.068 207.005 243.526 226.03 250.591C232.05 252.827 238.632 254.129 244.991 254.881C250.293 255.509 255.716 255.885 261.064 255.632C271 255.161 282.317 252.403 291.336 248.256C313.109 238.245 330.989 220.905 339.319 198.168C341.161 193.14 342.778 188.019 343.77 182.75C344.55 178.607 344.852 174.436 345.203 170.243ZM400.493 145.353C391.359 146.115 382.239 149.211 374.497 154.119C372.774 155.212 371.283 156.577 369.599 157.701C370.716 176.902 368.01 196.16 359.856 213.715L356.033 221.298L353.109 226.354C352.99 226.566 352.336 227.485 352.326 227.686C352.305 228.11 353.776 230.464 354.04 231.029C355.017 233.12 356.438 235.121 357.769 236.998C362.355 243.461 368.494 249.623 375.329 253.665C378.76 255.694 382.559 257.174 386.305 258.51C395.524 261.8 405.533 262.888 415.198 261.029C430.755 258.294 444.407 249.885 453.482 236.875C462.041 224.604 465.902 208.252 463.19 193.442C461.178 182.454 456.297 172.434 448.875 164.099C446.407 161.329 443.462 158.413 440.363 156.354L439.761 155.989C437.289 154.504 434.952 152.922 432.354 151.625C422.585 146.749 411.403 144.374 400.493 145.353ZM142.864 181.185C142.531 179.43 142.487 177.65 142.317 175.875C142.01 172.668 141.768 169.457 141.854 166.229C141.937 163.137 142.291 160.1 142.243 157.001C139.814 155.251 136.963 153.748 134.305 152.372C122.784 146.407 110.961 143.745 98.0306 145.847C86.7103 147.687 75.8993 152.136 67.3146 159.875C63.9683 162.892 61.1224 166.367 58.4787 170C49.8249 181.891 45.9804 198.09 48.2971 212.625L49.1443 216.646C49.5592 219.067 50.7067 221.932 51.6537 224.207C56.1812 235.086 63.5294 244.652 73.2483 251.415C79.4089 255.702 86.2556 258.518 93.5232 260.331C97.0696 261.216 100.874 261.976 104.533 262.04C108.567 262.111 112.971 261.461 116.946 260.757C131.932 258.107 145.872 249.014 154.429 236.448L159.735 227.482C158.257 225.81 157.194 223.697 156.082 221.764C149.013 209.479 144.542 195.227 142.864 181.185ZM400.727 287.356C389.782 288.175 379.858 290.526 370.019 295.5C366.998 297.028 364.199 298.993 361.162 300.46C362.748 302.093 364.087 303.891 365.587 305.593C380.275 322.255 391.073 341.983 396.958 363.375C399.003 370.809 400.295 378.648 401.525 386.283L436.758 375.011L486.356 358.964C484.941 353.426 484.22 347.834 482.403 342.368C476.572 324.82 463.765 308.495 447.867 298.992C440.709 294.713 433.678 291.985 425.656 289.794C422.334 288.887 418.887 287.933 415.466 287.524C412.705 287.194 409.919 287.203 407.142 287.194C405.067 287.188 402.78 287.078 400.727 287.356ZM56.3449 304.385C53.2716 306.894 50.2332 309.461 47.498 312.345C40.3579 319.872 34.9469 328.889 31.0885 338.476C28.7246 344.349 26.85 350.538 26.2081 356.858L26.1178 357.816L25.9828 358.625C26.751 359.339 28.5324 359.652 29.5643 360.01L44.2619 364.781L83.9313 377.894L110.25 386.427C110.587 385.979 110.64 386.069 110.607 385.478C110.557 384.554 110.799 383.648 110.893 382.733L112.091 374.302L113.343 368.299C117.824 346.893 128.846 326.393 142.69 309.625C145.338 306.418 147.907 303.3 150.936 300.437C149.708 299.972 148.766 299.193 147.646 298.541L141.328 295.117C137.995 293.437 134.496 292.284 130.941 291.177C125.899 289.607 121.151 288.408 115.891 287.744C95.0287 285.112 72.8682 291.498 56.3449 304.385ZM335.29 249.375C329.908 253.558 324.668 257.868 319.007 261.683C316.551 263.338 314.101 265.042 311.411 266.277L311.053 266.482C320.541 270.026 328.903 275.154 337.364 280.618L341.541 283.283L359.023 272.783L358.825 272.661C357.037 271.545 355.384 270.071 353.733 268.753C350.764 266.384 348.03 264.057 345.441 261.268C342.783 258.404 340.376 255.338 337.958 252.271C337.548 251.752 336.241 249.672 335.756 249.46C335.612 249.397 335.446 249.403 335.29 249.375ZM176.753 248.686C171.457 256.228 165.505 262.991 158.378 268.861C156.758 270.195 155.075 271.766 153.139 272.605L153.452 272.743C155.865 273.829 158.054 275.527 160.289 276.949L170.47 283.414L174.647 280.46C177.966 278.135 181.404 276.272 184.921 274.295C189.97 271.458 195.368 268.577 200.805 266.546C191.939 262.093 184.056 255.323 176.753 248.686ZM26.1178 357.816L26.2081 356.858C26.85 350.538 28.7246 344.349 31.0885 338.476C34.9469 328.889 40.3579 319.872 47.498 312.345C50.2332 309.461 53.2716 306.894 56.3449 304.385C56.117 304.009 55.938 303.69 55.625 303.377L54.8725 304.375L54.625 304.127C54.0971 304.67 53.4602 305.517 52.7512 305.751L52.468 306.166C52.174 306.588 51.929 306.578 51.6267 306.877L51.1262 307.626L50.625 307.627L50.395 307.998C50.0979 308.459 49.8209 308.578 49.375 308.877C48.7609 309.289 48.3336 309.809 47.875 310.377L47.5129 310.501L47.3424 310.799C46.9697 311.4 47.3172 310.886 46.75 311.377L45.1471 313.287C44.855 313.675 45.015 313.533 44.5715 313.751L44.4159 314.006C43.9404 314.703 43.2998 315.287 42.7111 315.887C42.3588 316.246 42.5628 316.022 42.25 316.542L41.875 317.108L41.5851 317.125L41.4791 317.43C41.2867 317.904 41.0321 318.079 40.75 318.477L40.5665 318.807C40.2161 319.423 39.7392 319.788 39.4108 320.453L38.875 321.435L38.6151 321.375L38.5115 321.576C38.2944 321.99 38.1331 322.3 37.7998 322.634C37.4457 322.988 37.3927 323.293 37.1931 323.738L36.875 324.34L36.6151 324.125C36.3289 324.83 36.2407 325.079 35.75 325.605C35.5705 325.797 35.435 326.226 35.3328 326.48C35.1887 326.839 35.057 327.106 34.8017 327.404L34.6134 327.375L34.5198 327.659C34.295 328.326 34.1693 328.579 33.75 329.105C33.279 329.695 33.3079 330.463 32.875 331.102L32.5437 331.125C32.4156 331.685 32.3792 332.424 31.9887 332.84C31.5894 333.265 31.5187 333.565 31.3991 334.107C31.2603 334.736 31.0577 334.915 30.713 335.434C30.2597 336.118 30.293 337.224 29.8943 338L30.25 338.625L29.75 339.5L29.3592 339.536C29.0391 340.016 28.6108 340.567 28.4417 341.125C28.1206 342.184 28.2841 342.851 27.4539 343.75L27.2822 345.038C27.1853 345.794 26.9281 346.07 26.6275 346.75C26.1875 347.745 26.4615 348.925 26.1275 350C25.9333 350.625 25.8461 351.223 25.6106 351.847C25.1886 352.966 25.3644 354.906 25.3775 356.125C25.9813 356.729 25.952 356.998 26.1178 357.816ZM142.243 157.001C142.291 160.1 141.937 163.137 141.854 166.229C141.768 169.457 142.01 172.668 142.317 175.875C142.487 177.65 142.531 179.43 142.864 181.185L143.107 180.754L143.375 180.873C143.92 180.052 143.902 179.84 143.761 178.875C143.276 175.568 143.1 172.151 143.03 168.806L143.097 161.398C143.114 160.019 143.297 158.597 142.833 157.281L142.243 157.001ZM344.193 153.984L345.203 170.243C345.312 171.08 345.396 171.652 345.875 172.373L346.082 172.125L345.836 159.125C345.698 156.944 345.755 154.583 344.999 152.501L344.751 152.501L344.193 153.984ZM294.787 86.4428C295.301 86.7398 297.421 88.079 297.989 88.0454L298.029 87.5529L298.754 87.6588L299.125 87.5L300.007 87.9649L300.485 87.7512C299.675 87.4151 298.803 86.5623 298.016 86.4403C297.347 86.3365 296.991 85.9488 296.45 85.5504C295.896 85.5197 295.666 85.5025 295.198 85.1645L294.875 84.9004L294.269 85.3125L295.148 85.8324L294.787 86.4428ZM113.343 368.299L112.091 374.302L113 374.554L113.168 374.121C113.564 373.069 114.565 369.345 114.125 368.377L113.766 368.602L113.343 368.299Z"/>
	<path fill="white" fill-opacity="0.96862745" d="M113.343 368.299L113.766 368.602L114.125 368.377C114.565 369.345 113.564 373.069 113.168 374.121L113 374.554L112.091 374.302L113.343 368.299Z"/>
	<path fill="white" fill-opacity="0.96078432" d="M294.787 86.4428L295.148 85.8324L294.269 85.3125L294.875 84.9004L295.198 85.1645C295.666 85.5025 295.896 85.5197 296.45 85.5504C296.991 85.9488 297.347 86.3365 298.016 86.4403C298.803 86.5623 299.675 87.4151 300.485 87.7512L300.007 87.9649L299.125 87.5L298.754 87.6588L298.029 87.5529L297.989 88.0454C297.421 88.079 295.301 86.7398 294.787 86.4428Z"/>
	<path fill="white" fill-opacity="0.96862745" d="M344.193 153.984L344.751 152.501L344.999 152.501C345.755 154.583 345.698 156.944 345.836 159.125L346.082 172.125L345.875 172.373C345.396 171.652 345.312 171.08 345.203 170.243L344.193 153.984Z"/>
	<path fill="white" fill-opacity="0.96862745" d="M142.243 157.001L142.833 157.281C143.297 158.597 143.114 160.019 143.097 161.398L143.03 168.806C143.1 172.151 143.276 175.568 143.761 178.875C143.902 179.84 143.92 180.052 143.375 180.873L143.107 180.754L142.864 181.185C142.531 179.43 142.487 177.65 142.317 175.875C142.01 172.668 141.768 169.457 141.854 166.229C141.937 163.137 142.291 160.1 142.243 157.001Z"/>
	<path fill="white" fill-opacity="0.94901961" d="M26.1178 357.816C25.952 356.998 25.9813 356.729 25.3775 356.125C25.3644 354.906 25.1886 352.966 25.6106 351.847C25.8461 351.223 25.9333 350.625 26.1275 350C26.4615 348.925 26.1875 347.745 26.6275 346.75C26.9281 346.07 27.1853 345.794 27.2822 345.038L27.4539 343.75C28.2841 342.851 28.1206 342.184 28.4417 341.125C28.6108 340.567 29.0391 340.016 29.3592 339.536L29.75 339.5L30.25 338.625L29.8943 338C30.293 337.224 30.2597 336.118 30.713 335.434C31.0577 334.915 31.2603 334.736 31.3991 334.107C31.5187 333.565 31.5894 333.265 31.9887 332.84C32.3792 332.424 32.4156 331.685 32.5437 331.125L32.875 331.102C33.3079 330.463 33.279 329.695 33.75 329.105C34.1693 328.579 34.295 328.326 34.5198 327.659L34.6134 327.375L34.8017 327.404C35.057 327.106 35.1887 326.839 35.3328 326.48C35.435 326.226 35.5705 325.797 35.75 325.605C36.2407 325.079 36.3289 324.83 36.6151 324.125L36.875 324.34L37.1931 323.738C37.3927 323.293 37.4457 322.988 37.7998 322.634C38.1331 322.3 38.2944 321.99 38.5115 321.576L38.6151 321.375L38.875 321.435L39.4108 320.453C39.7392 319.788 40.2161 319.423 40.5665 318.807L40.75 318.477C41.0321 318.079 41.2867 317.904 41.4791 317.43L41.5851 317.125L41.875 317.108L42.25 316.542C42.5628 316.022 42.3588 316.246 42.7111 315.887C43.2998 315.287 43.9404 314.703 44.4159 314.006L44.5715 313.751C45.015 313.533 44.855 313.675 45.1471 313.287L46.75 311.377C47.3172 310.886 46.9697 311.4 47.3424 310.799L47.5129 310.501L47.875 310.377C48.3336 309.809 48.7609 309.289 49.375 308.877C49.8209 308.578 50.0979 308.459 50.395 307.998L50.625 307.627L51.1262 307.626L51.6267 306.877C51.929 306.578 52.174 306.588 52.468 306.166L52.7512 305.751C53.4602 305.517 54.0971 304.67 54.625 304.127L54.8725 304.375L55.625 303.377C55.938 303.69 56.117 304.009 56.3449 304.385C53.2716 306.894 50.2332 309.461 47.498 312.345C40.3579 319.872 34.9469 328.889 31.0885 338.476C28.7246 344.349 26.85 350.538 26.2081 356.858L26.1178 357.816Z"/>
	<path fill="white" fill-opacity="0.96078432" d="M96.3877 120.737C101.674 119.743 107.505 119.819 112.826 120.293C114.061 120.403 115.586 120.388 116.766 120.747C115.686 120.895 114.577 120.713 113.5 120.83C107.816 121.447 102.076 120.979 96.3877 120.737Z"/>
	<path fill="white" fill-opacity="0.96078432" d="M395.418 120.743C400.705 119.648 406.903 119.819 412.269 120.281C413.541 120.39 415.078 120.37 416.288 120.746C415.367 120.869 414.427 120.739 413.5 120.802C408.926 121.111 403.453 121.623 398.92 120.921C398.506 120.857 398.189 120.807 397.763 120.806L395.418 120.743Z"/>
</svg>
