<?xml version="1.0" encoding="utf-8" ?>
<svg xmlns="http://www.w3.org/2000/svg" xmlns:xlink="http://www.w3.org/1999/xlink" width="512" height="512">
	<path fill="white" d="M400.852 196.904L402.144 194.892C403.305 193.418 405.169 192.512 407.016 192.346C410.765 192.01 414.785 192.286 418.558 192.294C423.339 192.304 428.573 191.915 433.282 192.652L433.632 192.705C435.338 192.991 436.838 193.895 437.845 195.301L438.375 196.163L438.549 196.443C439.603 198.185 439.648 200.266 439.139 202.192C438.948 202.915 438.742 203.438 438.31 204.048L438.108 204.34C436.972 205.941 435.323 207.095 433.375 207.464C430.381 208.031 426.587 207.61 423.502 207.611C417.723 207.614 411.83 208.11 406.09 207.375C405.157 207.255 404.392 207.008 403.625 206.453C402.147 205.383 400.762 203.615 400.452 201.777L400.403 201.069C399.949 200.105 400.62 197.91 400.852 196.904ZM400.852 196.904C400.62 197.91 399.949 200.105 400.403 201.069L401 201.248L401.158 202.289L401.196 202.625L401.475 202.715L401.718 202.125C401.314 200.625 401.869 199.077 401.532 197.75C401.487 197.571 400.991 197.078 400.852 196.904Z"/>
	<path fill="white" fill-opacity="0.96078432" d="M400.852 196.904C400.991 197.078 401.487 197.571 401.532 197.75C401.869 199.077 401.314 200.625 401.718 202.125L401.475 202.715L401.196 202.625L401.158 202.289L401 201.248L400.403 201.069C399.949 200.105 400.62 197.91 400.852 196.904Z"/>
	<path fill="white" d="M254.236 48.2933C254.899 48.241 255.523 48.2571 256.184 48.3257C257.8 48.4937 258.957 48.9189 260.323 49.794C262.507 51.1933 264.287 53.3054 266.29 54.9624C272.061 59.7351 278.117 63.9625 285.008 66.9361C289.378 68.8221 294.605 70.3009 299.3 71.0686L307 71.9959C310.024 72.2408 313.428 72.0127 316.143 73.5558C317.604 74.386 318.838 75.9031 319.26 77.5377C319.772 79.5242 319.636 82.2306 318.514 84.021C317.392 85.8103 315.572 87.0095 313.532 87.4446C309.864 88.1692 304.94 87.5352 301.285 87.0345C283.985 84.6649 269.041 78.2606 256 66.5089C253.788 64.5155 251.021 62.3511 249.298 59.9285C248.115 58.2665 248.076 56.5076 248.421 54.5347L248.497 54.125C248.682 53.0854 248.951 52.2773 249.521 51.375C250.633 49.6118 252.273 48.7682 254.236 48.2933Z"/>
	<path fill="white" d="M152.688 365.178C153.361 363.261 154.567 361.839 156.428 360.975C158.473 360.027 160.882 360.081 162.967 360.85C164.85 361.545 166.133 363.05 166.875 364.891C167.061 365.353 167.117 365.764 167.193 366.25L167.259 366.617C167.555 368.398 167.445 370.295 167.448 372.095L167.452 380.784L167.447 412.36L167.422 465.184L167.48 480.783C167.501 483.41 167.679 486.131 167.546 488.75C167.484 489.976 167.153 491.29 166.425 492.29C165.23 493.932 163.038 495.445 161 495.705C158.916 495.971 156.177 495.255 154.589 493.875C153.545 492.968 152.928 491.482 152.661 490.165L152.576 490.104C152.205 486.78 152.299 483.42 152.29 480.079L152.272 465.072L152.258 416.932L152.286 382.571L152.286 372.925C152.281 370.32 152.175 367.746 152.688 365.178ZM152.688 365.178C152.175 367.746 152.281 370.32 152.286 372.925L152.286 382.571L152.258 416.932L152.272 465.072L152.29 480.079C152.299 483.42 152.205 486.78 152.576 490.104L152.661 490.165L152.77 489.994C152.713 489.366 152.738 488.907 152.875 488.291L153.143 488.536C153.037 489.349 152.886 489.975 153.289 490.735L153.673 490.447L153.647 489.229C153.273 485.559 153.507 481.698 153.503 478L153.487 456.874L153.498 388.547L153.45 368.825C153.437 367.832 153.743 366.542 153.499 365.609L153.281 365.782L153.269 367.618L153.043 367.827L152.688 365.178Z"/>
	<path fill="white" fill-opacity="0.96862745" d="M152.688 365.178L153.043 367.827L153.269 367.618L153.281 365.782L153.499 365.609C153.743 366.542 153.437 367.832 153.45 368.825L153.498 388.547L153.487 456.874L153.503 478C153.507 481.698 153.273 485.559 153.647 489.229L153.673 490.447L153.289 490.735C152.886 489.975 153.037 489.349 153.143 488.536L152.875 488.291C152.738 488.907 152.713 489.366 152.77 489.994L152.661 490.165L152.576 490.104C152.205 486.78 152.299 483.42 152.29 480.079L152.272 465.072L152.258 416.932L152.286 382.571L152.286 372.925C152.281 370.32 152.175 367.746 152.688 365.178Z"/>
	<path fill="white" d="M16.7046 205.071C17.8912 202.97 19.0922 201.409 21.5714 200.738C24.5236 199.939 28.0307 200.278 31.0846 200.27L47.5929 200.185L50.0113 194.351L38.9717 183.269C36.7865 181.115 34.2657 179.137 32.5136 176.609C31.6781 175.404 31.0204 173.756 31.0218 172.264C31.0222 171.917 31.0944 171.582 31.1572 171.243C31.3867 170.004 31.5844 168.964 32.2627 167.875L32.4323 167.598C33.8469 165.387 36.3266 163.355 38.1881 161.491L50.6437 149.101L69.3374 130.476C72.2677 127.56 75.1056 124.317 78.2352 121.624C79.4787 120.553 80.8012 119.648 82.4297 119.298C84.7241 118.804 87.1626 119.513 89.0518 120.818C91.9681 122.831 94.4019 125.711 96.8627 128.25L106.302 137.742L111.966 135.531C112.546 131.21 111.18 124.784 115.009 121.811C116.498 120.656 118.795 119.88 120.698 120.123L121.854 120.387L122.191 120.47C124.097 120.963 125.744 122.421 126.689 124.125C126.888 124.483 126.984 124.833 127.091 125.223L127.2 125.609C128.014 128.686 127.599 132.148 127.562 135.303C127.527 138.323 128.204 142.5 126.611 145.22C126.06 146.16 125.196 146.974 124.277 147.55C122.127 148.897 119.415 149.532 117.085 150.533C113.667 152.003 109.91 154.32 106.295 155.178C103.997 155.724 101.845 154.877 99.9643 153.599C97.3718 151.838 95.2897 149.156 93.0723 146.952L84.2208 138.267C79.1864 142.317 74.8184 147.355 70.2637 151.929L50.0203 172.324C53.1793 174.806 55.9663 177.889 58.8311 180.701C61.0774 182.906 63.6655 184.991 65.5319 187.539C66.2732 188.551 67.0063 190.008 67.169 191.258C67.3229 192.44 67.1311 193.973 66.7779 195.112C65.968 197.723 64.5402 200.134 63.4744 202.647C62.1319 205.811 61.2684 210.358 59.0049 212.975C56.7479 215.584 53.8317 215.701 50.6309 215.849C47.5808 215.99 44.4626 215.703 41.3961 215.722C38.2183 215.742 34.7218 216.375 31.598 215.829L31.5033 264.18C32.819 264.483 34.5404 264.277 35.9008 264.273L48.4165 264.243C50.5147 264.245 53.0143 263.987 55.057 264.501C56.7834 264.935 58.6193 266.045 59.5799 267.589C61.1416 270.099 61.8222 273.442 62.9556 276.185C64.2253 279.258 66.0913 282.322 66.9375 285.541C67.2559 286.751 67.2371 288.25 66.875 289.448C66.5043 290.674 65.7867 291.841 64.9821 292.827C62.8969 295.382 60.2929 297.592 57.9694 299.934C55.3763 302.547 52.6994 305.733 49.8213 307.977L50.0212 308.135C52.114 309.83 53.9798 311.93 55.8854 313.843L66.768 324.878C70.2724 328.428 74.3426 331.735 77.5603 335.515C78.5366 336.661 79.0572 337.552 79.5333 339L79.6595 339.343C80.2154 340.919 80.1437 342.99 79.4267 344.499L79.2385 344.875L79.0852 345.216C78.4966 346.479 77.4451 347.388 76.25 348.059L75.8307 348.297C74.3649 349.118 72.3341 349.704 70.6714 349.209L69.7229 348.824L69.403 348.688C66.3766 347.345 63.505 343.715 61.1871 341.372L51.3445 331.439L32.7851 312.572C31.3931 311.015 31.1184 309.149 31.2592 307.112C31.3462 305.854 31.6688 304.842 32.2896 303.756L32.4643 303.446C34.2381 300.394 37.6383 298.041 40.0903 295.518C43.2443 292.273 46.3883 288.391 49.9246 285.589L47.9631 280.11C42.3151 279.49 36.6929 279.663 31.0145 279.674C28.1474 279.68 24.1139 280.152 21.3621 279.312C20.1189 278.933 18.7483 277.802 17.9834 276.77L17.8405 276.535L17.6208 276.301C16.9951 275.585 16.5437 274.094 16.4659 273.158C16.1477 269.327 16.3261 265.351 16.3228 261.503L16.3111 240.906L16.3055 220.281C16.3033 215.157 16.1737 210.173 16.7046 205.071ZM17.8405 276.535C18.0568 275.858 18.2043 275.355 17.9855 274.654C17.2908 272.425 17.5039 269.671 17.4974 267.349L17.4925 256.386L17.4936 220.921L17.4336 210.233C17.4358 208.692 17.6079 207.165 17.5504 205.625L16.7046 205.071C16.1737 210.173 16.3033 215.157 16.3055 220.281L16.3111 240.906L16.3228 261.503C16.3261 265.351 16.1477 269.327 16.4659 273.158C16.5437 274.094 16.9951 275.585 17.6208 276.301L17.8405 276.535Z"/>
	<path fill="white" fill-opacity="0.96078432" d="M17.8405 276.535L17.6208 276.301C16.9951 275.585 16.5437 274.094 16.4659 273.158C16.1477 269.327 16.3261 265.351 16.3228 261.503L16.3111 240.906L16.3055 220.281C16.3033 215.157 16.1737 210.173 16.7046 205.071L17.5504 205.625C17.6079 207.165 17.4358 208.692 17.4336 210.233L17.4936 220.921L17.4925 256.386L17.4974 267.349C17.5039 269.671 17.2908 272.425 17.9855 274.654C18.2043 275.355 18.0568 275.858 17.8405 276.535Z"/>
	<path fill="white" d="M369.285 137.182C370.043 134.512 371.217 132.102 372.785 129.81C376.272 124.711 381.269 122.43 387.044 120.865C390.245 119.997 394.233 120.286 397.531 120.324C398.809 120.339 401.569 120.76 402.59 120.087L402.793 119.63C404.101 116.787 407.36 114.304 410.25 113.309C411.349 112.931 412.476 112.665 413.625 112.496L414.031 112.433C416.857 112.035 419.918 112.256 422.771 112.26C429.559 112.268 436.412 111.66 442.085 116.106C443.162 116.95 444.025 117.924 444.92 118.95C445.129 119.189 445.631 119.941 445.878 120.061C446.764 120.493 449.356 120.242 450.4 120.247L463.539 120.264C466.838 120.259 471.731 119.638 474.745 120.884C476.964 121.801 478.707 123.662 479.253 126L479.335 126.34C479.875 128.795 479.707 131.642 479.685 134.145L479.508 146.622L479.527 160.298C479.535 162.96 479.656 165.692 479.425 168.343C479.319 169.555 479.061 170.95 478.388 171.979C477.24 173.731 475.508 175.057 473.405 175.417C471.678 175.712 469.767 175.496 468.25 174.625L467.996 174.492C466.35 173.615 465.207 171.751 464.696 170C463.529 165.998 464.278 160.71 464.329 156.521L464.395 135.97C458.887 135.967 453.135 135.35 447.671 135.889L447.427 146.526L447.413 154.767C447.442 157.501 447.587 160.253 446.896 162.932C446.661 163.842 446.025 164.585 445.375 165.242C444.204 166.426 442.374 167.497 440.676 167.499L439.784 167.413L439.487 167.379C435.344 166.855 430.904 163.986 427.125 162.253C426.498 161.966 424.157 160.773 423.495 160.88C422.953 160.968 421.585 162.018 421.031 162.316L415.304 165.255C411.696 167.055 408.181 168.934 404.233 166.625L403.986 166.495C402.45 165.672 401.275 164.112 400.783 162.456C400.248 160.654 400.294 158.631 400.291 156.768L400.323 149.014L400.417 135.699C395.775 135.785 389.4 134.93 385.825 138.625C385.477 138.986 385.262 139.331 384.997 139.75L384.758 140.108C383.798 141.612 383.539 143.375 383.434 145.13C383.114 150.5 383.374 156.023 383.38 161.407L383.395 192.221L383.386 213.951C383.382 217.655 382.827 222.147 383.717 225.731C384.31 228.119 385.789 229.755 387.879 230.987C389.644 232.027 390.956 231.999 392.915 232.209L464.312 232.288L464.307 212.314C464.283 208.269 463.969 204.015 464.367 200C464.503 198.628 464.726 197.418 465.375 196.192L465.503 195.936C466.107 194.772 467.254 193.835 468.375 193.186L468.659 193.017C470.035 192.245 472.056 192.099 473.555 192.534C475.554 193.115 477.664 194.496 478.747 196.324C479.379 197.391 479.44 199.29 479.505 200.502C479.864 207.189 479.488 213.935 479.48 220.631L479.465 233.206C479.468 235.316 479.609 237.444 479.488 239.55C479.424 240.674 479.239 241.807 478.873 242.875C478.728 243.296 478.525 243.639 478.296 244.016L478.122 244.311C477.059 246.055 475.702 246.953 473.757 247.392C469.236 248.412 464.589 247.73 460.012 247.685L441.037 247.659L409.525 247.695C402.321 247.746 395.155 248.19 387.968 247.345C384.762 246.968 381.436 245.469 378.738 243.739C373.943 240.665 370.105 235.191 368.98 229.584L368.849 228.705C368.351 227.125 368.434 225.303 368.383 223.652L368.291 213.753L368.302 190.665L368.351 159.134L368.511 141.625C368.587 140.077 368.825 138.662 369.285 137.182ZM415.671 127.875L415.782 147.443C417.372 146.542 418.996 145.481 420.75 144.951L421.157 144.826C424.76 143.769 427.406 144.935 430.637 146.473L431.625 147.023L432.083 146.751L432.277 127.951L416.014 127.826L415.671 127.875ZM369.285 137.182C368.825 138.662 368.587 140.077 368.511 141.625L368.351 159.134L368.302 190.665L368.291 213.753L368.383 223.652C368.434 225.303 368.351 227.125 368.849 228.705L369.081 228.419L369.407 228.632C369.579 228.338 369.683 228.095 369.689 227.749L369.481 221L369.482 208.11L369.651 141.5C369.657 141.054 369.748 140.125 369.599 139.75C369.577 139.696 369.158 139.164 369.148 139.125C369.046 138.74 369.254 137.621 369.285 137.182Z"/>
	<path fill="white" fill-opacity="0.96078432" d="M369.285 137.182C369.254 137.621 369.046 138.74 369.148 139.125C369.158 139.164 369.577 139.696 369.599 139.75C369.748 140.125 369.657 141.054 369.651 141.5L369.482 208.11L369.481 221L369.689 227.749C369.683 228.095 369.579 228.338 369.407 228.632L369.081 228.419L368.849 228.705C368.351 227.125 368.434 225.303 368.383 223.652L368.291 213.753L368.302 190.665L368.351 159.134L368.511 141.625C368.587 140.077 368.825 138.662 369.285 137.182Z"/>
	<path fill="white" d="M389.367 293.538C390.756 293.358 392.195 293.374 393.588 293.534C395.673 293.772 397.515 295.382 398.687 297.032C399.53 298.22 400.121 299.65 400.786 300.947L405.343 310.423L416.886 334.105L424.384 348.901C425.905 351.836 427.616 354.683 428.825 357.771C429.348 359.104 429.54 361.103 429.281 362.505C428.874 364.716 427.842 366.394 425.958 367.625C423.92 368.957 422.242 368.758 420 368.303C418.183 367.934 416.827 366.76 415.664 365.378C413.779 363.139 412.568 359.807 411.262 357.185L403.965 342.533C403.16 340.907 401.755 337.013 400.25 336.192C398.837 337.95 399.478 351.869 399.477 354.625L399.739 389.12L485.949 363.074C488.175 362.477 490.159 362.625 492.185 363.839L492.5 364.034C493.585 364.693 494.38 365.562 494.947 366.712C495.969 368.786 495.771 371.974 494.731 374C494.064 375.299 492.864 376.464 491.875 377.525C489.247 380.346 486.295 382.854 483.5 385.506L456.443 411.674L449.835 418.252C449.515 418.588 448.537 419.401 448.375 419.797C448.079 420.524 449.67 428.006 449.861 429.125L455.32 461.105L457.621 474.245C458.129 477.135 458.803 480.161 458.977 483.093C459.045 484.228 458.752 485.362 458.332 486.411C457.355 488.851 455.612 489.807 453.33 490.762L453.023 490.883C451.106 491.558 447.963 490.584 446.257 489.678L392.153 461.243C386.834 463.332 381.857 466.386 376.807 469.05L351.236 482.312C347.045 484.513 342.96 487.047 338.686 489.061C335.648 490.493 332.892 491.707 329.545 490.467C327.988 489.89 326.532 488.805 325.867 487.237L325.722 486.875C325.2 485.595 324.928 484.532 324.979 483.136C325.032 481.67 325.4 480.212 325.611 478.762L327.331 468.197L334.743 424.585C334.899 423.456 335.081 422.359 335.357 421.253C335.391 421.12 335.645 420.275 335.629 420.209C335.526 419.764 306.088 391.002 303.139 388.149C298.911 384.057 293.923 380.065 290.258 375.483C289.253 374.226 288.422 372.926 288.263 371.294C288.08 369.427 288.711 366.89 289.924 365.432C291.199 363.9 293.11 363.231 294.983 362.735C300.376 361.306 306.293 361.073 311.823 360.228L356.956 353.888L374.685 317.994L382.83 301.49C383.667 299.939 384.389 298.227 385.396 296.784L385.573 296.537C386.614 295.041 387.735 294.275 389.367 293.538ZM391.911 413.802L358.673 460.546L379.903 449.516C382.433 448.206 384.919 446.416 387.564 445.402C389.131 444.802 390.645 444.627 392.298 444.464C397.228 445.88 401.318 448.08 405.883 450.381L425.49 460.49C422.164 456.403 419.343 451.919 416.302 447.616L399.931 424.731C397.405 421.235 394.905 416.882 391.911 413.802ZM456.775 388.625L439.25 393.941L423 398.765L411.625 402.398C409.38 403.102 407.119 403.968 404.766 404.196L404.972 404.448L425.701 433.743L437.511 449.718C436.214 444.478 435.787 438.996 434.914 433.666C434.125 428.849 432.758 423.731 432.536 418.875C432.45 416.989 432.42 415.131 433.375 413.437L433.508 413.175C435.423 409.497 439.613 406.283 442.616 403.437L453.798 392.802C454.883 391.773 457.393 389.949 457.79 388.625C457.369 388.552 457.203 388.527 456.775 388.625ZM325.027 387.692L331.404 393.635L342.434 404.497C345.032 407.025 348.252 409.601 350.282 412.601C351.193 413.946 351.735 415.361 351.709 417C351.629 421.994 350.34 426.964 349.518 431.875L346.691 449.423L358.245 433.595L379.165 404.507L325.027 387.692ZM383.814 335.629L374.279 354.551C372.648 357.892 371.131 362.082 368.931 365.048C367.875 366.47 366.47 367.662 364.75 368.169C361.671 369.076 358.401 369.359 355.238 369.836L340.412 371.979C337.726 372.326 334.796 372.409 332.198 373.161L345.841 377.509L384.115 389.282C384.461 386.004 384.283 382.567 384.279 379.269L384.25 362.525L384.211 346.247C384.202 342.754 384.413 339.078 383.814 335.629Z"/>
	<path fill="white" d="M335.791 127.751L336.258 132.317C338.855 127.394 341.127 122.283 342.503 116.875C345.329 105.772 344.316 93.7598 341.002 82.8929C335.459 64.7151 323.014 49.4498 306.178 40.5506C299.03 36.7719 290.771 33.9307 282.774 32.6405C272.75 31.0232 261.91 31.6711 251.775 31.6713C239.672 31.6716 227.362 31.2257 215.311 32.4618C211.071 32.8967 206.931 33.7152 202.861 34.9856C196.506 36.9688 191.304 39.861 185.484 42.9295C181.011 45.2877 177.684 49.5391 173 51.5315L172.693 51.6752C171.351 52.2773 169.547 52.1964 168.198 51.6425C166.403 50.9058 164.533 49.2346 163.851 47.375C163.13 45.4054 163.143 42.4617 164.125 40.5612C165.413 38.0693 168.287 35.9735 170.483 34.3075C179.572 27.4126 188.993 22.6181 200 19.4886C204.661 18.1634 209.919 16.9745 214.761 16.5666C219.449 16.1716 224.188 16.27 228.89 16.2573L249.229 16.2343L272.746 16.3448C277.433 16.4386 282.121 16.3642 286.753 17.1951C296.103 18.8721 305.635 22.2039 313.918 26.8391C334.632 38.4301 349.678 56.9726 356.127 79.875C357.143 83.4819 357.77 87.0432 358.255 90.75C359.207 98.0156 359.834 105.116 358.875 112.45C358.425 115.897 357.61 119.221 356.888 122.609C355.689 128.232 352.944 133.906 350.379 139.019C347.915 143.501 344.719 147.721 341.395 151.602C340.145 153.063 338.731 154.406 337.349 155.742C336.862 156.213 335.896 156.904 335.696 157.532C335.159 159.217 335.453 161.971 335.441 163.749L335.38 178.588C335.119 202.362 323.848 225.965 306.037 241.663L297.899 248.148C297.457 248.491 295.997 249.343 295.766 249.761C295.665 249.944 295.686 250.782 295.669 251.014L295.537 256.293L317.893 256.269C324.709 256.28 331.603 256.143 338.375 257.031C347.164 258.185 355.878 261.387 363.543 265.796C366.718 267.622 370.205 269.563 372.824 272.147C374.763 274.059 375.274 276.129 375.222 278.812C375.184 280.794 374.486 282.28 373.062 283.681C372.171 284.559 371.299 285.097 370.125 285.499L369.885 285.585C367.959 286.212 365.374 285.683 363.653 284.732C360.985 283.257 358.714 281.101 356.052 279.548C350.132 276.096 342.636 273.179 335.789 272.511C332.194 272.161 328.546 272.196 324.967 271.707L323.434 275.256L321.939 278.685L303.521 319.88L297.956 332.75C296.985 335.003 296.118 337.418 294.873 339.535C293.986 341.044 292.449 342.639 290.782 343.265C288.698 344.048 286.412 343.79 284.419 342.852C282.224 341.82 280.595 340.292 278.749 338.764L273.389 334.489L262.156 325.452C260.07 323.761 257.869 322.194 255.951 320.306C255.326 326.3 255.523 332.449 255.55 338.473L255.617 362.777L255.57 446.078L255.624 466.428C255.693 471.246 256.125 476.241 255.537 481.034C255.3 482.968 254.404 484.77 252.883 486.013C251.165 487.417 248.914 487.977 246.724 487.666C245.624 487.51 244.638 487.251 243.707 486.625L243.405 486.425C242.011 485.469 240.877 483.793 240.528 482.125L240.337 480.464C240.11 479.517 240.145 478.327 240.092 477.338C239.903 473.798 240.225 470.187 240.252 466.64L240.283 443.012L240.312 327.077L240.032 320.313L212.427 342.375C210.5 343.608 208.307 344.143 206.053 343.588L205.75 343.507C204.394 343.164 202.976 342.135 202.109 341.029L201.937 340.799C200.336 338.691 199.47 335.914 198.38 333.509L192.352 320.129L179.067 289.728L171.056 271.698C160.177 271.683 148.892 274.159 139.411 279.64C129.42 285.418 121.032 294.623 116.523 305.297C115.089 308.691 114.181 312.242 113.227 315.791C110.978 327.03 111.393 338.313 111.381 349.709L111.374 385.847L111.384 447.146L111.508 484.065C111.636 486.564 111.695 490.115 110.299 492.279L110.12 492.571C109.124 494.152 107.589 495.009 105.797 495.43C104.242 495.796 101.801 495.879 100.375 494.999C98.5296 493.861 96.9862 492.163 96.5375 490L96.3756 488.063C95.8842 481.248 96.2605 474.568 96.2886 467.753L96.3513 433.019L96.3472 362.444L96.3841 335.313C96.3996 330.719 96.3076 326.077 96.713 321.5C96.823 320.257 96.7666 318.767 97.1887 317.592C97.3255 315.061 98.0049 312.408 98.6375 309.959C100.803 301.579 104.608 294.277 109.08 286.93C107.74 285.887 106.539 284.439 105.351 283.214C96.0848 273.652 90.3887 260.747 88.7408 247.568C88.3636 246.277 88.4523 244.71 88.4058 243.363C88.249 238.822 88.3019 233.846 89.244 229.392C90.6085 220.231 94.2355 211.803 99.1585 204.014C105.25 194.376 114.733 186.969 124.937 182.11C127.822 180.736 130.704 179.412 133.841 178.725C136.354 178.175 138.771 178.961 140.862 180.375C142.039 181.171 143.003 183.222 143.253 184.573C143.822 187.648 142.921 190.373 140.513 192.396C138.507 194.081 135.507 194.78 133.121 195.798C124.791 199.354 117.463 204.937 112.392 212.513C106.824 220.833 103.052 231.003 103.378 241.126C103.484 244.43 104.272 247.69 104.898 250.904C105.172 252.314 105.701 253.505 106.117 254.859C107.814 260.382 110.388 265.636 114.171 270.04C115.781 271.916 117.647 273.606 119.456 275.286L120.103 274.651C130.669 264.546 145.39 258.026 159.931 256.612C166.174 256.004 172.655 256.283 178.928 256.282L200.275 256.267L200.202 251.357C200.049 250.144 199.648 249.237 198.682 248.469L198.466 248.303C195.913 246.312 193.143 244.692 190.699 242.531C175.846 229.402 164.911 211.258 161.573 191.608C160.724 186.612 160.498 181.618 160.409 176.563L160.306 164.48C160.302 162.351 160.699 158.909 159.947 156.944C159.632 156.122 157.687 154.73 157.023 154.095C155.132 152.286 153.297 150.409 151.647 148.375C145.569 140.882 141.419 131.79 138.698 122.592C134.216 107.44 136.166 89.4606 141.325 74.7357C142.244 72.1128 143.106 69.3888 144.475 66.9562C145.55 65.0454 147.4 63.3615 149.555 62.7861L149.875 62.7059L150.441 62.5693C152.388 62.2494 154.644 63.1358 156.199 64.2202L156.519 64.4475C158.747 65.9704 159.33 68.1866 159.124 70.7656C158.855 74.1429 156.992 77.4437 155.892 80.6337C151.996 91.9399 150.454 103.314 152.853 115.125C153.698 119.285 155.28 123.191 156.903 127.095C157.554 128.662 158.265 130.92 159.625 131.978C160.649 131.181 160.361 126.936 160.432 125.449C160.813 117.452 162.454 108.861 166.107 101.659C167.097 99.7065 167.9 97.6778 169.019 95.7891C173.905 87.5382 180.787 80.5791 188.725 75.2265C197.455 69.34 206.758 66.8849 216.982 65.1587C219.454 64.7414 222.563 63.9406 225.047 64.4423L225.375 64.5122L225.664 64.5573C229.465 65.1822 231.49 69.4311 233.564 72.2678C245.063 87.9956 261.191 99.0594 280.519 102.585C288.188 103.984 296.445 104.226 304.231 104.241L320.282 104.247C323.057 104.249 326.145 103.986 328.878 104.441L329.25 104.508C330.736 104.744 332.1 105.319 333.232 106.335C334.753 107.7 335.402 108.944 335.503 111.008C335.897 113.271 335.676 115.714 335.662 118.006L335.791 127.751ZM219.476 80.625C206.343 81.638 194.645 88.7672 186.132 98.5136C173.21 113.308 175.408 134.436 175.445 152.628C175.463 161.068 175.036 169.759 175.719 178.165C175.92 180.639 175.979 183.202 176.31 185.654C176.983 190.642 178.245 195.616 179.903 200.362C180.487 202.03 180.99 203.84 181.854 205.384L184.158 210.016C185.649 212.759 187.312 215.426 189.097 217.986C191.456 221.372 194.34 224.413 197.289 227.286C206.004 235.777 215.666 241.845 227.391 245.246C237.008 248.035 247.528 249.015 257.467 247.516C262.682 246.729 267.683 245.204 272.693 243.61C290.929 237.046 305.53 223.203 313.743 205.75C321.761 188.711 320.356 169.577 320.324 151.259L320.481 119.842L320.168 119.873C317.905 120.068 315.611 119.87 313.344 119.819L303.135 119.707C297.566 119.654 291.86 119.837 286.317 119.328C267.335 117.583 249.724 109.715 235.29 97.3579C232.034 94.5701 229.137 91.6074 226.355 88.3548L222.253 83.2581C221.771 82.626 220.961 81.3237 220.332 80.875C220.134 80.7334 219.719 80.6426 219.476 80.625ZM216.054 258.125C215.916 258.644 215.874 259.089 215.861 259.624L215.665 268.471L247.883 293.806L269.098 277.003C272.722 274.189 276.431 270.769 280.308 268.367L280.359 257.717C275.408 259.328 270.187 261.105 265.089 262.154C253.576 264.522 240.227 264.214 228.809 261.521L219.448 259.029C218.542 258.774 216.926 258.045 216.054 258.125ZM187.603 271.668L192.531 282.736L194.619 287.363C197.082 292.079 198.975 297.165 201.186 302L207.007 314.625L209.725 320.919C210.13 321.779 210.52 322.844 211.158 323.55L224.343 312.591C227.749 309.834 231.742 307.23 234.829 304.146C232.033 300.677 228.294 298.232 224.805 295.503L212.457 285.578C208.863 282.707 205.234 280.048 202.024 276.73C200.767 275.43 200.448 273.685 200.252 271.95L187.603 271.668ZM296.051 271.875L295.675 273.218C295.167 275.02 294.363 276.444 293.06 277.793C290.287 280.663 286.695 282.852 283.59 285.358L260.634 304.019L278.338 318.267C280.516 319.938 282.899 321.605 284.811 323.571L307.882 272.107L307.741 271.944L307.276 271.966C305.999 272.016 304.716 271.837 303.433 271.855C301.309 271.885 299.092 272.118 296.989 271.801C296.373 271.708 296.663 271.694 296.051 271.875ZM97.1887 317.592C96.7666 318.767 96.823 320.257 96.713 321.5C96.3076 326.077 96.3996 330.719 96.3841 335.313L96.3472 362.444L96.3513 433.019L96.2886 467.753C96.2605 474.568 95.8842 481.248 96.3756 488.063C96.7134 487.952 96.8646 487.968 97.0614 487.618C97.3065 487.182 97.1016 484.715 97.1014 484.127L97.1104 470.661C97.1125 469.907 96.888 467.843 97.1204 467.25C97.1845 467.086 97.3672 467 97.4907 466.875L97.5154 356.453L97.517 329.143C97.5105 326.425 98.0732 323.181 97.4616 320.554C97.2219 319.524 97.3839 318.607 97.1887 317.592ZM306.037 241.663C323.848 225.965 335.119 202.362 335.38 178.588L335.441 163.749C335.453 161.971 335.159 159.217 335.696 157.532C335.896 156.904 336.862 156.213 337.349 155.742C338.731 154.406 340.145 153.063 341.395 151.602C344.719 147.721 347.915 143.501 350.379 139.019L349.602 137.792C349.313 138.407 349.448 138.056 349.281 138.622C349.174 138.983 349.002 139.178 348.877 139.5L348.833 139.74L348.625 139.377C348.258 139.929 348.417 139.538 348.382 140.025C348.345 140.551 348.111 140.915 347.873 141.375L347.501 141.251C347.287 141.662 347.191 142.118 347.001 142.501C346.627 143.255 346.879 142.608 346.377 143.25L346.001 144.001C345.507 144.298 345.481 144.219 345.251 144.751C344.941 145.468 343.209 147.762 342.517 148.001C342.253 148.424 342.042 148.848 341.66 149.172C341.335 149.446 341.34 149.658 341.127 150L340.625 150.627L340.377 151.009C339.869 151.769 338.602 153.22 337.751 153.501C337.336 154.309 337.09 154.099 336.625 154.627C336.237 155.069 336.461 155.539 335.775 155.836L335.55 155.875L335.301 156.282C335.06 156.669 334.861 156.88 334.468 157.125C333.879 158.178 334.224 160.473 334.219 161.75L334.198 176.522C334.161 178.641 333.81 180.765 333.875 182.877C333.188 183.796 333.409 184.69 333.398 185.8C333.383 187.448 333.442 189.54 332.694 191.036C332.181 192.062 332.454 193.733 332.246 194.884C332.035 196.055 331.457 196.845 331.356 198.124C331.299 198.846 331.076 199.341 330.751 199.969C330.409 200.63 330.55 201.305 330.359 202C330.192 202.607 329.772 203.126 329.57 203.726C329.262 204.642 329.174 205.331 328.725 206.225C328.466 206.743 328.388 207.699 328.092 208.125C327.808 208.534 327.617 208.402 327.5 208.958C327.317 209.832 327.215 210.169 326.688 210.876C326.305 211.388 326.33 212.065 326.05 212.55C325.634 213.272 325.182 213.293 325.084 214.232C325.042 214.631 325.093 214.451 324.875 214.826L324.59 214.751L324.022 215.75L323.956 216.484L323.745 216.708C323.484 217.005 323.405 217.188 323.251 217.54C323.038 218.028 323.059 218.307 322.554 218.501L322.496 218.905C322.386 219.457 322.21 219.696 321.875 220.127L321.564 220.251C321.384 220.96 321.183 221.585 320.877 222.25L320.54 222.375L320.441 222.595C320.228 223.063 320.037 223.442 319.735 223.861C319.333 224.418 319.13 225.496 318.55 225.751C318.207 226.306 317.957 226.67 317.502 227.125C317.19 227.437 317.075 227.931 316.749 228.251L316.569 228.251C316.304 228.747 316.07 229.527 315.55 229.751L315.338 230.062C314.321 231.513 312.845 232.717 311.75 234.127L311.583 234.29C311.288 234.59 311.422 234.452 311.131 234.883C310.499 235.819 311.298 234.717 310.501 235.501L310.354 235.766C309.924 236.482 309.222 236.944 308.75 237.627L308.377 238L308.105 238.32C307.739 238.731 307.904 238.579 307.377 238.875L307.175 239.327L306.996 239.446C306.708 239.65 306.465 239.884 306.21 240.126L306.037 241.663ZM111.508 484.065L111.384 447.146L111.374 385.847L111.381 349.709C111.393 338.313 110.978 327.03 113.227 315.791C113.124 315.003 113.001 314.338 112.711 313.597L112.477 313.625L112.411 313.987C112.205 315.064 111.732 316.068 111.535 317.126C111.302 318.373 111.735 321.086 111.127 322C111.127 322.766 111.292 323.875 110.877 324.5C110.877 325.496 111.152 327.46 110.627 328.25L110.627 448.718C110.627 452.464 110.232 481.031 110.877 482C110.877 483.06 110.917 483.184 111.508 484.065ZM240.312 327.077L240.283 443.012L240.252 466.64C240.225 470.187 239.903 473.798 240.092 477.338C240.145 478.327 240.11 479.517 240.337 480.464L240.617 479.875L240.788 480.125C241.116 479.493 241.04 478.882 241.042 478.197L241.099 364.546C241.095 360.206 241.438 328.209 240.312 327.077ZM334.538 120.83C334.519 122.101 334.186 124.251 334.946 125.279C334.971 126.025 334.856 127.006 335.252 127.627L335.791 127.751L335.662 118.006C335.676 115.714 335.897 113.271 335.503 111.008L335.1 111.356L334.956 109.875L334.567 109.625C334.232 110.524 334.444 112.023 334.458 113.009L334.538 120.83ZM88.7408 247.568C88.9045 246.347 88.5283 244.342 88.9857 243.267C89.1738 242.825 89.1098 243.182 89.1807 242.649L89.2056 242.375L89.5462 242.375L89.5941 236.727C89.6449 235.418 89.8256 233.847 89.4829 232.579C89.1998 231.531 89.2554 230.473 89.244 229.392C88.3019 233.846 88.249 238.822 88.4058 243.363C88.4523 244.71 88.3636 246.277 88.7408 247.568ZM321.939 278.685L323.434 275.256L323.011 274.969L322.812 274.751L322.688 275.438C322.511 275.148 322.426 274.942 322.322 274.625C321.697 275.52 321.508 276.078 321.222 277.132C321.109 277.548 321.172 277.392 320.928 277.75C321.051 278.178 321.107 278.274 321.375 278.602L321.679 278.31L321.939 278.685Z"/>
	<path fill="white" fill-opacity="0.95686275" d="M321.939 278.685L321.679 278.31L321.375 278.602C321.107 278.274 321.051 278.178 320.928 277.75C321.172 277.392 321.109 277.548 321.222 277.132C321.508 276.078 321.697 275.52 322.322 274.625C322.426 274.942 322.511 275.148 322.688 275.438L322.812 274.751L323.011 274.969L323.434 275.256L321.939 278.685Z"/>
	<path fill="white" fill-opacity="0.96078432" d="M88.7408 247.568C88.3636 246.277 88.4523 244.71 88.4058 243.363C88.249 238.822 88.3019 233.846 89.244 229.392C89.2554 230.473 89.1998 231.531 89.4829 232.579C89.8256 233.847 89.6449 235.418 89.5941 236.727L89.5462 242.375L89.2056 242.375L89.1807 242.649C89.1098 243.182 89.1738 242.825 88.9857 243.267C88.5283 244.342 88.9045 246.347 88.7408 247.568Z"/>
	<path fill="white" fill-opacity="0.95294118" d="M334.538 120.83L334.458 113.009C334.444 112.023 334.232 110.524 334.567 109.625L334.956 109.875L335.1 111.356L335.503 111.008C335.897 113.271 335.676 115.714 335.662 118.006L335.791 127.751L335.252 127.627C334.856 127.006 334.971 126.025 334.946 125.279C334.186 124.251 334.519 122.101 334.538 120.83ZM334.538 120.83C334.519 122.101 334.186 124.251 334.946 125.279C335.158 122.927 335.046 120.166 334.812 117.812C334.794 118.762 334.753 119.663 334.582 120.599L334.538 120.83Z"/>
	<path fill="white" fill-opacity="0.96078432" d="M334.538 120.83L334.582 120.599C334.753 119.663 334.794 118.762 334.812 117.812C335.046 120.166 335.158 122.927 334.946 125.279C334.186 124.251 334.519 122.101 334.538 120.83Z"/>
	<path fill="white" fill-opacity="0.94509804" d="M240.312 327.077C241.438 328.209 241.095 360.206 241.099 364.546L241.042 478.197C241.04 478.882 241.116 479.493 240.788 480.125L240.617 479.875L240.337 480.464C240.11 479.517 240.145 478.327 240.092 477.338C239.903 473.798 240.225 470.187 240.252 466.64L240.283 443.012L240.312 327.077Z"/>
	<path fill="white" fill-opacity="0.96078432" d="M111.508 484.065C110.917 483.184 110.877 483.06 110.877 482C110.232 481.031 110.627 452.464 110.627 448.718L110.627 328.25C111.152 327.46 110.877 325.496 110.877 324.5C111.292 323.875 111.127 322.766 111.127 322C111.735 321.086 111.302 318.373 111.535 317.126C111.732 316.068 112.205 315.064 112.411 313.987L112.477 313.625L112.711 313.597C113.001 314.338 113.124 315.003 113.227 315.791C110.978 327.03 111.393 338.313 111.381 349.709L111.374 385.847L111.384 447.146L111.508 484.065Z"/>
	<path fill="white" fill-opacity="0.95294118" d="M306.037 241.663L306.21 240.126C306.465 239.884 306.708 239.65 306.996 239.446L307.175 239.327L307.377 238.875C307.904 238.579 307.739 238.731 308.105 238.32L308.377 238L308.75 237.627C309.222 236.944 309.924 236.482 310.354 235.766L310.501 235.501C311.298 234.717 310.499 235.819 311.131 234.883C311.422 234.452 311.288 234.59 311.583 234.29L311.75 234.127C312.845 232.717 314.321 231.513 315.338 230.062L315.55 229.751C316.07 229.527 316.304 228.747 316.569 228.251L316.749 228.251C317.075 227.931 317.19 227.437 317.502 227.125C317.957 226.67 318.207 226.306 318.55 225.751C319.13 225.496 319.333 224.418 319.735 223.861C320.037 223.442 320.228 223.063 320.441 222.595L320.54 222.375L320.877 222.25C321.183 221.585 321.384 220.96 321.564 220.251L321.875 220.127C322.21 219.696 322.386 219.457 322.496 218.905L322.554 218.501C323.059 218.307 323.038 218.028 323.251 217.54C323.405 217.188 323.484 217.005 323.745 216.708L323.956 216.484L324.022 215.75L324.59 214.751L324.875 214.826C325.093 214.451 325.042 214.631 325.084 214.232C325.182 213.293 325.634 213.272 326.05 212.55C326.33 212.065 326.305 211.388 326.688 210.876C327.215 210.169 327.317 209.832 327.5 208.958C327.617 208.402 327.808 208.534 328.092 208.125C328.388 207.699 328.466 206.743 328.725 206.225C329.174 205.331 329.262 204.642 329.57 203.726C329.772 203.126 330.192 202.607 330.359 202C330.55 201.305 330.409 200.63 330.751 199.969C331.076 199.341 331.299 198.846 331.356 198.124C331.457 196.845 332.035 196.055 332.246 194.884C332.454 193.733 332.181 192.062 332.694 191.036C333.442 189.54 333.383 187.448 333.398 185.8C333.409 184.69 333.188 183.796 333.875 182.877C333.81 180.765 334.161 178.641 334.198 176.522L334.219 161.75C334.224 160.473 333.879 158.178 334.468 157.125C334.861 156.88 335.06 156.669 335.301 156.282L335.55 155.875L335.775 155.836C336.461 155.539 336.237 155.069 336.625 154.627C337.09 154.099 337.336 154.309 337.751 153.501C338.602 153.22 339.869 151.769 340.377 151.009L340.625 150.627L341.127 150C341.34 149.658 341.335 149.446 341.66 149.172C342.042 148.848 342.253 148.424 342.517 148.001C343.209 147.762 344.941 145.468 345.251 144.751C345.481 144.219 345.507 144.298 346.001 144.001L346.377 143.25C346.879 142.608 346.627 143.255 347.001 142.501C347.191 142.118 347.287 141.662 347.501 141.251L347.873 141.375C348.111 140.915 348.345 140.551 348.382 140.025C348.417 139.538 348.258 139.929 348.625 139.377L348.833 139.74L348.877 139.5C349.002 139.178 349.174 138.983 349.281 138.622C349.448 138.056 349.313 138.407 349.602 137.792L350.379 139.019C347.915 143.501 344.719 147.721 341.395 151.602C340.145 153.063 338.731 154.406 337.349 155.742C336.862 156.213 335.896 156.904 335.696 157.532C335.159 159.217 335.453 161.971 335.441 163.749L335.38 178.588C335.119 202.362 323.848 225.965 306.037 241.663Z"/>
	<path fill="white" fill-opacity="0.96078432" d="M97.1887 317.592C97.3839 318.607 97.2219 319.524 97.4616 320.554C98.0732 323.181 97.5105 326.425 97.517 329.143L97.5154 356.453L97.4907 466.875C97.3672 467 97.1845 467.086 97.1204 467.25C96.888 467.843 97.1125 469.907 97.1104 470.661L97.1014 484.127C97.1016 484.715 97.3065 487.182 97.0614 487.618C96.8646 487.968 96.7134 487.952 96.3756 488.063C95.8842 481.248 96.2605 474.568 96.2886 467.753L96.3513 433.019L96.3472 362.444L96.3841 335.313C96.3996 330.719 96.3076 326.077 96.713 321.5C96.823 320.257 96.7666 318.767 97.1887 317.592Z"/>
	<path fill="white" d="M212.512 137.84C219.168 137.613 226.123 138.256 231.826 142.029C234.288 143.657 238.332 146.247 239.246 149.231C239.845 151.187 239.556 154.032 238.545 155.787C237.646 157.347 236.293 158.829 234.484 159.274C229.679 160.454 227.25 157.496 223.5 155.309C222.225 154.565 220.867 154.087 219.487 153.576C217.594 153.294 214.918 153.315 213.036 153.666C210.984 154.048 209.433 154.546 207.665 155.69C205.388 157.162 203.854 158.833 201.166 159.647C199.612 160.118 197.023 159.062 195.625 158.269C194.011 157.353 192.985 155.551 192.576 153.774C192.111 151.75 192.573 149.181 193.753 147.5C197.971 141.488 205.65 139.04 212.512 137.84Z"/>
	<path fill="white" d="M275.776 137.829C277.48 137.472 279.638 137.646 281.375 137.753C283.64 137.891 286.071 137.994 288.265 138.605C293.217 139.983 300.604 143.788 303.037 148.569C303.811 150.088 303.746 153.093 303.149 154.695C302.51 156.409 301.029 158.278 299.334 159.044C294.714 161.133 291.607 158.031 288.011 155.707C286.672 154.842 285.304 154.241 283.804 153.712C280.564 152.521 274.592 154.294 271.729 155.914C269.718 157.053 267.802 158.933 265.55 159.552C263.865 160.015 261.57 159.548 260.093 158.667C258.344 157.623 256.92 155.862 256.509 153.846C255.96 151.148 256.758 148.808 258.294 146.621C262.019 141.314 269.659 138.857 275.776 137.829Z"/>
</svg>
