<?xml version="1.0" standalone="no"?>
<!DOCTYPE svg PUBLIC "-//W3C//DTD SVG 20010904//EN"
 "http://www.w3.org/TR/2001/REC-SVG-20010904/DTD/svg10.dtd">
<svg version="1.0" xmlns="http://www.w3.org/2000/svg"
 width="512.000000pt" height="512.000000pt" viewBox="0 0 512.000000 512.000000"
 preserveAspectRatio="xMidYMid meet">

<g transform="translate(0.000000,512.000000) scale(0.100000,-0.100000)"
fill="#fff" stroke="none">
<path d="M4037 4863 c-221 -221 -263 -267 -290 -323 l-32 -65 -3 -211 -4 -211
-116 83 c-222 160 -550 304 -825 363 -1133 245 -2280 -412 -2642 -1511 -158
-483 -151 -1019 21 -1487 289 -787 980 -1350 1814 -1478 159 -24 491 -24 650
0 388 60 736 206 1049 440 123 92 346 315 438 438 454 607 582 1374 348 2087
-74 223 -197 461 -332 640 -35 46 -63 85 -63 87 0 2 93 5 208 7 l208 3 69 34
c59 29 102 66 294 255 237 234 281 284 281 323 0 32 -25 80 -49 92 -10 6 -146
20 -302 32 -156 11 -285 22 -285 23 -1 0 -11 129 -23 284 -12 156 -26 292 -31
303 -6 10 -24 26 -40 34 -65 34 -65 34 -343 -242z m226 -266 l13 -166 -183
-183 -183 -183 0 173 c0 133 4 181 15 210 18 43 318 350 323 329 1 -7 8 -88
15 -180z m-1631 -276 c260 -46 487 -129 706 -260 106 -62 272 -182 306 -220
l20 -22 -113 -113 -113 -113 -108 81 c-210 158 -451 265 -714 319 -96 19 -141
22 -336 21 -191 0 -241 -3 -330 -22 -146 -30 -267 -71 -296 -100 -35 -36 -33
-94 5 -133 36 -35 73 -38 155 -9 150 51 250 65 471 65 229 0 290 -9 475 -67
163 -52 381 -169 505 -273 l30 -25 -116 -116 -116 -116 -76 55 c-138 99 -314
173 -498 208 -107 20 -328 15 -449 -10 -570 -120 -971 -611 -973 -1191 0 -335
121 -629 357 -866 183 -182 426 -307 671 -344 102 -16 278 -16 380 0 154 23
365 104 399 152 20 28 21 87 1 115 -8 12 -30 26 -49 33 -30 10 -43 7 -118 -24
-344 -143 -687 -115 -986 80 -217 141 -380 382 -438 646 -21 96 -21 309 -1
403 54 243 178 446 367 598 345 277 831 298 1202 51 l70 -47 -117 -117 -118
-118 -56 34 c-31 19 -92 46 -136 61 -70 23 -97 26 -210 27 -114 0 -140 -3
-208 -26 -200 -67 -362 -219 -437 -408 -121 -307 -8 -656 270 -835 84 -54 147
-80 242 -99 98 -20 169 -20 266 0 298 62 517 296 555 596 19 152 -21 334 -101
452 -18 26 -32 50 -32 54 0 4 51 58 114 121 l114 113 40 -53 c182 -243 242
-568 162 -869 -26 -99 -25 -114 9 -152 24 -27 36 -33 71 -33 34 0 47 6 70 32
34 38 65 160 81 318 29 286 -65 608 -245 840 l-47 59 116 116 116 115 35 -40
c61 -71 154 -217 204 -320 222 -461 198 -1020 -62 -1455 -189 -316 -497 -566
-836 -680 -187 -62 -266 -74 -497 -74 -179 0 -224 3 -308 22 -313 70 -562 205
-782 426 -239 239 -381 513 -437 841 -26 155 -21 415 11 567 41 188 120 377
225 538 64 97 70 132 31 178 -30 35 -69 45 -111 27 -75 -31 -244 -350 -313
-590 -47 -165 -56 -240 -55 -475 0 -255 13 -338 84 -551 185 -555 658 -994
1227 -1138 266 -67 589 -68 855 0 573 145 1042 579 1228 1138 72 214 84 296
85 551 0 235 -9 309 -56 475 -67 233 -192 472 -335 641 l-52 61 116 116 117
116 36 -42 c258 -302 416 -640 486 -1042 24 -140 24 -500 0 -640 -76 -442
-272 -827 -577 -1135 -177 -179 -352 -304 -581 -414 -717 -346 -1563 -249
-2189 251 -115 91 -195 168 -282 273 -380 452 -550 1010 -482 1590 54 464 262
890 599 1225 334 333 758 537 1235 595 125 15 439 5 572 -19z m2123 -60 c28
-1 21 -10 -120 -152 -89 -90 -166 -159 -190 -170 -34 -16 -65 -19 -215 -19
l-175 0 183 183 182 182 152 -12 c84 -6 166 -12 183 -12z m-2357 -1506 c34 -8
81 -24 104 -36 l41 -21 -155 -156 c-85 -87 -163 -168 -172 -182 -43 -66 4
-150 85 -150 42 0 46 3 214 170 94 94 174 170 178 170 13 0 57 -100 72 -162
40 -170 -8 -332 -134 -459 -197 -196 -495 -196 -692 0 -197 197 -197 495 0
692 127 127 288 174 459 134z"/>
<path d="M1268 3695 c-57 -32 -66 -108 -19 -156 71 -70 192 2 161 96 -6 18
-19 40 -29 49 -26 24 -81 29 -113 11z"/>
<path d="M3087 1639 c-11 -6 -25 -27 -33 -46 -29 -69 16 -133 95 -133 32 0 44
6 65 31 57 67 18 159 -68 159 -22 0 -49 -5 -59 -11z"/>
</g>
</svg>
