<?xml version="1.0" encoding="utf-8" ?>
<svg xmlns="http://www.w3.org/2000/svg" xmlns:xlink="http://www.w3.org/1999/xlink" width="563" height="377">
	<path fill="#FE0000" d="M274.579 289.154L395.814 289.049L395.87 333.726L395.909 342.468C395.911 342.964 396.094 344.554 395.921 344.954C395.824 345.178 395.598 345.32 395.437 345.503L274.619 345.46L274.579 289.154Z"/>
	<path fill="#356801" d="M274.578 38.2889L395.801 38.3382L395.979 94.6562L274.582 94.7359L274.578 38.2889Z"/>
	<path fill="#356801" d="M274.53 205.486L365.866 205.492L387.108 205.492C389.626 205.494 393.431 205.013 395.816 205.635L396.06 261.95L274.495 261.928L274.53 205.486Z"/>
	<path fill="#FE0000" d="M423.883 205.73L433.89 207.255C437.421 207.706 441.035 208.004 444.489 208.905C447.787 209.766 450.888 211.708 453.856 213.319C456.904 214.974 460.18 216.34 463.096 218.221C465.588 219.828 467.792 222.069 469.947 224.09C472.607 226.585 475.354 229.064 477.827 231.746C481.175 235.378 482.93 239.596 485.11 243.943C487.22 248.151 489.489 252.193 490.771 256.755C491.442 259.142 491.534 261.731 491.881 264.186C492.441 268.147 493.357 272.279 493.185 276.288C493.073 278.913 492.628 281.531 492.301 284.136C491.676 289.125 490.958 294.197 489.284 298.956C488.097 302.332 486.381 305.543 484.752 308.721C483.311 311.534 481.768 314.637 479.809 317.132C477.695 319.823 475.064 322.142 472.546 324.448C470.128 326.843 467.604 329.506 464.871 331.528C462.089 333.585 458.994 334.922 455.948 336.523C452.074 338.559 448.189 341.017 443.932 342.143C437.567 343.826 430.436 344.306 423.881 345.109L423.883 205.73Z"/>
	<path fill="#FE0000" d="M274.534 121.803L493.403 121.73L493.547 177.497L493.164 177.961L274.642 177.985L274.534 121.803Z"/>
	<path fill="#356801" d="M242.144 38.6376C243.507 38.3357 245.286 38.4658 246.703 38.3989L246.953 261.873C242.039 261.005 237.025 260.797 232.115 259.827C217.149 256.87 204.093 248.245 193.982 237.073C188.814 230.687 184.221 223.149 181.456 215.403C175.735 199.38 176.389 178.978 183.604 163.506C185.297 159.875 187.4 156.357 189.421 152.894C189.809 152.23 191.264 150.256 191.291 149.714C191.325 149.03 185.945 141.115 185.141 139.65C181.125 132.329 178.879 123.525 177.993 115.27C175.994 96.6368 181.869 77.661 193.663 63.1363C205.281 48.8281 224.074 40.4777 242.144 38.6376Z"/>
</svg>
