<?xml version="1.0" encoding="utf-8" ?>
<svg xmlns="http://www.w3.org/2000/svg" xmlns:xlink="http://www.w3.org/1999/xlink" width="512" height="512">
	<path fill="white" fill-opacity="0.96470588" d="M65.5408 271.642C64.9027 271.537 64.8687 271.664 64.4481 271.125L64.4249 261.526C64.4246 259.862 64.2582 258.003 64.5865 256.375L65.6482 256.167L65.5408 271.642Z"/>
	<path fill="white" fill-opacity="0.96470588" d="M209.498 143.537C208.913 143.475 208.886 143.593 208.478 143.125L208.399 133.92C208.387 132.087 208.268 130.192 208.5 128.375L209.541 128.313L209.535 139.839C209.521 141.054 209.724 142.345 209.498 143.537Z"/>
	<path fill="white" fill-opacity="0.96862745" d="M241.541 143.527C240.94 143.473 240.895 143.589 240.462 143.125L240.4 133.178C240.397 131.655 240.216 129.844 240.594 128.375L241.65 128.167C241.414 131.686 241.524 135.311 241.549 138.843C241.559 140.376 241.702 142.007 241.541 143.527Z"/>
	<path fill="white" fill-opacity="0.96470588" d="M65.5408 303.647L64.75 303.525C64.073 302.653 64.3058 290.256 64.5196 288.375L65.5408 288.314L65.5771 298.118C65.5928 299.828 65.816 301.978 65.5408 303.647Z"/>
	<path fill="white" fill-opacity="0.96862745" d="M65.4882 335.539C64.8542 335.5 64.889 335.633 64.4357 335.125C64.4101 330.345 63.9364 325.097 64.5082 320.375L65.5408 320.313L65.5818 330.5C65.5951 332.012 65.9294 334.142 65.4882 335.539Z"/>
	<defs>
		<linearGradient id="gradient_0" gradientUnits="userSpaceOnUse" x1="273.26929" y1="133.87387" x2="272.7547" y2="133.87602">
			<stop offset="0" stop-color="white" stop-opacity="0.96078432"/>
			<stop offset="1" stop-color="white"/>
		</linearGradient>
	</defs>
	<path fill="url(#gradient_0)" d="M273.541 143.663L272.638 143.639C271.99 142.581 272.214 130.005 272.546 128.375L273.66 128.166L273.541 143.663Z"/>
	<path fill="white" fill-opacity="0.96862745" d="M65.5408 367.673L64.6377 367.644C64.1355 366.796 64.399 364.742 64.3955 363.685C64.3834 360.031 64.0239 355.981 64.5099 352.375L65.652 352.148C65.3137 355.81 65.5407 359.614 65.5721 363.292C65.5838 364.658 65.7529 366.34 65.5408 367.673Z"/>
	<path fill="white" fill-opacity="0.96862745" d="M209.541 239.676C209.077 239.686 208.928 239.678 208.48 239.5C207.992 237.394 208.363 234.548 208.378 232.367C208.396 229.84 208.08 226.843 208.566 224.375L209.647 224.155L209.539 235.428C209.543 236.732 209.761 238.406 209.541 239.676Z"/>
	<path fill="white" fill-opacity="0.97254902" d="M209.541 175.656L208.735 175.615L208.375 175.167L208.388 166.058C208.39 164.194 208.253 162.218 208.544 160.375L209.644 160.157C209.428 163.758 209.544 167.418 209.576 171.026C209.588 172.466 209.803 174.243 209.541 175.656Z"/>
	<path fill="white" fill-opacity="0.96862745" d="M393.541 463.669L392.638 463.636L392.515 463.451C392.084 462.564 392.361 460.368 392.361 459.352L392.338 452.516C392.331 451.17 392.187 449.693 392.481 448.375L393.541 448.321L393.543 459.125C393.55 460.545 393.773 462.273 393.541 463.669Z"/>
	<path fill="white" fill-opacity="0.97254902" d="M209.541 207.661L208.636 207.657C207.919 206.45 208.193 194.06 208.484 192.375L209.647 192.197C209.415 195.796 209.498 199.443 209.53 203.047C209.542 204.501 209.752 206.243 209.541 207.661Z"/>
	<path fill="white" d="M241.65 128.167L241.925 128.191L255.529 128.429C255.506 130.388 255.75 143.159 255.496 143.589L245.364 143.592C244.245 143.593 242.575 143.821 241.541 143.527C241.702 142.007 241.559 140.376 241.549 138.843C241.524 135.311 241.414 131.686 241.65 128.167Z"/>
	<path fill="white" d="M209.541 128.313L223.666 128.352L223.633 143.594L213.278 143.609C212.184 143.61 210.505 143.839 209.498 143.537C209.724 142.345 209.521 141.054 209.535 139.839L209.541 128.313Z"/>
	<path fill="white" d="M474.678 268.875L475.352 268.8C476.158 269.654 476.781 270.818 477.42 271.807C479.47 274.983 481.028 278.449 483.125 281.589C480.144 284.385 475.821 286.194 472.281 288.211L456.375 297.192L455.625 297.398L448.103 284.177L474.678 268.875Z"/>
	<path fill="white" d="M438.885 259.534L436.34 268.898L421.299 265.113L430.169 232.802C431.425 233.276 432.822 233.502 434.124 233.844L442.479 236.077C443.256 236.276 444.053 236.409 444.72 236.875L438.885 259.534ZM442.479 236.077L442.251 236.954L442.485 237.005C442.827 237.09 442.698 237.043 443.005 237.25L443.037 238.125L442.75 238.243L442.46 238.5C442.402 239.538 442.391 240.62 442.105 241.625C441.925 242.255 441.6 242.856 441.48 243.5C441.243 244.765 441.123 245.68 440.622 246.878C440.157 247.992 440.251 249.27 439.733 250.483C439.34 251.404 439.458 252.323 439.161 253.233C438.821 254.275 438.474 254.817 438.374 255.959C438.313 256.657 438.111 257.327 437.925 258C438.05 258.43 438.131 258.562 438.395 258.904L438.679 258.375L438.885 259.534L444.72 236.875C444.053 236.409 443.256 236.276 442.479 236.077Z"/>
	<path fill="white" fill-opacity="0.94509804" d="M442.479 236.077C443.256 236.276 444.053 236.409 444.72 236.875L438.885 259.534L438.679 258.375L438.395 258.904C438.131 258.562 438.05 258.43 437.925 258C438.111 257.327 438.313 256.657 438.374 255.959C438.474 254.817 438.821 254.275 439.161 253.233C439.458 252.323 439.34 251.404 439.733 250.483C440.251 249.27 440.157 247.992 440.622 246.878C441.123 245.68 441.243 244.765 441.48 243.5C441.6 242.856 441.925 242.255 442.105 241.625C442.391 240.62 442.402 239.538 442.46 238.5L442.75 238.243L443.037 238.125L443.005 237.25C442.698 237.043 442.827 237.09 442.485 237.005L442.251 236.954L442.479 236.077Z"/>
	<path fill="white" d="M462.953 315.19L495.576 323.918C493.724 328.517 493.185 333.673 491.553 338.375L491.105 338.772C487.755 338.113 484.546 337.148 481.251 336.285L464.757 331.865C463.154 331.425 460.562 331.222 459.184 330.419L462.953 315.19Z"/>
	<path fill="white" d="M273.66 128.166L273.933 128.193C279.343 128.688 285.124 128.323 290.576 128.328L323.232 128.356L331.522 128.391C332.716 128.402 334.342 128.238 335.464 128.633L335.512 143.613L273.541 143.663L273.66 128.166Z"/>
	<path fill="white" d="M449.652 408.159L449.945 408.182C453.073 408.414 456.269 408.295 459.407 408.309C460.736 408.315 462.377 408.142 463.661 408.447L463.486 425.403C463.496 432.658 464.652 441.364 462.213 448.25C460.322 453.588 456.001 458.674 450.875 461.203C449.595 461.834 448.321 462.258 446.967 462.695C442.246 464.217 437.505 463.902 432.649 463.733L423.177 463.657L393.541 463.669C393.773 462.273 393.55 460.545 393.543 459.125L393.541 448.321L425.487 448.273C429.839 448.274 434.415 448.557 438.739 448.154C440.769 447.964 443.224 447.802 444.82 446.41L445.125 446.138C446.342 445.073 447.548 443.93 447.782 442.229C448.393 437.797 448.349 433.498 448.353 429.031L448.349 414.319C448.342 412.361 448.22 410.314 448.485 408.375L449.652 408.159ZM448.349 414.319L448.605 414.536L448.812 431.999C449.02 431.812 449.302 431.683 449.435 431.438C449.796 430.769 449.5 427.646 449.5 426.762C449.5 420.582 449.285 414.327 449.652 408.159L448.485 408.375C448.22 410.314 448.342 412.361 448.349 414.319Z"/>
	<defs>
		<linearGradient id="gradient_1" gradientUnits="userSpaceOnUse" x1="449.30603" y1="417.3754" x2="448.694" y2="417.37115">
			<stop offset="0" stop-color="white" stop-opacity="0.96470588"/>
			<stop offset="1" stop-color="white"/>
		</linearGradient>
	</defs>
	<path fill="url(#gradient_1)" d="M448.349 414.319C448.342 412.361 448.22 410.314 448.485 408.375L449.652 408.159C449.285 414.327 449.5 420.582 449.5 426.762C449.5 427.646 449.796 430.769 449.435 431.438C449.302 431.683 449.02 431.812 448.812 431.999L448.605 414.536L448.349 414.319Z"/>
	<path fill="white" d="M209.647 192.197L335.657 192.4L335.524 202.626C335.526 204.11 335.798 206.207 335.453 207.628L209.541 207.661C209.752 206.243 209.542 204.501 209.53 203.047C209.498 199.443 209.415 195.796 209.647 192.197Z"/>
	<path fill="white" d="M209.644 160.157L209.919 160.182L335.587 160.404L335.506 175.62L209.541 175.656C209.803 174.243 209.588 172.466 209.576 171.026C209.544 167.418 209.428 163.758 209.644 160.157Z"/>
	<path fill="white" d="M209.647 224.155L209.922 224.181L335.673 224.381L335.652 239.653L209.541 239.676C209.761 238.406 209.543 236.732 209.539 235.428L209.647 224.155Z"/>
	<path fill="white" d="M65.6482 256.167L65.9228 256.193C70.3519 256.574 75.0051 256.308 79.4554 256.313L104.914 256.335L186.092 256.359C189.407 256.359 205.796 255.873 207.478 256.585L207.508 271.63L65.5408 271.642L65.6482 256.167Z"/>
	<path fill="white" d="M65.5408 320.313L207.665 320.367L207.551 335.622L96.4391 335.615L73.4653 335.604L67.9723 335.612C67.2124 335.613 66.2031 335.75 65.4882 335.539C65.9294 334.142 65.5951 332.012 65.5818 330.5L65.5408 320.313Z"/>
	<path fill="white" d="M65.652 352.148L65.926 352.174L207.497 352.397C207.866 353.845 207.527 356.033 207.495 357.552L207.534 367.627L65.5408 367.673C65.7529 366.34 65.5838 364.658 65.5721 363.292C65.5407 359.614 65.3137 355.81 65.652 352.148Z"/>
	<path fill="white" d="M65.5408 288.314L207.651 288.345L207.521 303.614L65.5408 303.647C65.816 301.978 65.5928 299.828 65.5771 298.118L65.5408 288.314Z"/>
	<path fill="white" d="M64.6544 134.089C64.854 132.757 65.3479 131.533 66.2884 130.539C67.6428 129.107 69.6115 128.537 71.5218 128.342C74.8283 128.003 78.4184 128.275 81.7498 128.273L102.318 128.273L165.299 128.298C167.116 128.313 169.334 128.164 170.955 129.076L171.298 129.258C172.98 130.17 173.898 131.179 174.737 132.875L174.867 133.117C175.479 134.311 175.58 136.708 175.631 138.075C175.725 140.529 175.502 143.03 175.489 145.49L175.483 163.48L175.549 195.553L175.645 212.618C175.585 214.637 175.743 216.792 175.097 218.729C174.907 219.3 174.704 219.746 174.375 220.247L174.191 220.533C172.848 222.567 171.042 223.156 168.769 223.602C164.156 224.505 159.007 223.771 154.326 223.699L135.687 223.654L93.5474 223.65C87.3834 223.653 81.0936 224.093 74.956 223.761C72.2686 223.616 69.2307 223.677 66.9781 221.966C65.9896 221.215 65.2079 219.874 64.8118 218.717C64.4401 217.455 64.3384 216.03 64.3006 214.718L64.3122 196.745L64.3741 161.682L64.2271 142.684C64.2378 139.986 63.9984 136.71 64.6544 134.089ZM79.7946 143.875C79.381 145.048 79.521 146.602 79.5052 147.84L79.4773 156.719L79.47 183.068L79.4817 199.833C79.4935 202.592 79.2764 205.587 79.6548 208.308L160.268 208.341L160.437 143.969L101.417 143.672L87.5178 143.693C85.0027 143.742 82.2763 144.264 79.7946 143.875ZM64.6544 134.089C63.9984 136.71 64.2378 139.986 64.2271 142.684L64.3741 161.682L64.3122 196.745L64.3006 214.718C64.3384 216.03 64.4401 217.455 64.8118 218.717L65.0797 218.423L65.375 218.623L65.6225 218.375L65.5225 198.512L65.535 150.7L65.2448 142.561C65.2324 141.512 65.0745 140.14 65.2517 139.128C65.5033 137.691 65.9154 134.998 65.4984 133.579L65.0213 133.625L65.14 136.037L64.7668 135.75C64.8214 135.114 64.8591 134.709 64.6544 134.089Z"/>
	<path fill="white" fill-opacity="0.97254902" d="M64.6544 134.089C64.8591 134.709 64.8214 135.114 64.7668 135.75L65.14 136.037L65.0213 133.625L65.4984 133.579C65.9154 134.998 65.5033 137.691 65.2517 139.128C65.0745 140.14 65.2324 141.512 65.2448 142.561L65.535 150.7L65.5225 198.512L65.6225 218.375L65.375 218.623L65.0797 218.423L64.8118 218.717C64.4401 217.455 64.3384 216.03 64.3006 214.718L64.3122 196.745L64.3741 161.682L64.2271 142.684C64.2378 139.986 63.9984 136.71 64.6544 134.089Z"/>
	<path fill="white" d="M240.65 375.084C241.764 371.072 243.722 367.032 246.701 364.064C249.773 361.003 253.904 358.815 257.651 356.7L282.317 342.652C285.397 340.814 288.746 339.157 291.534 336.897C293.61 335.213 295.231 332.84 296.821 330.71L301.909 324.21L322.672 297.804L341.284 274.621C340.811 271.136 340.363 267.136 340.942 263.637C341.433 260.673 342.696 257.676 344.125 255.051L344.273 254.773C347.027 249.726 352.605 246.204 358.039 244.736C361.635 243.764 365.122 243.648 368.778 244.414C370.923 244.863 372.817 245.487 374.794 246.429L375.123 246.579C378.202 248.013 381.138 250.515 383.256 253.153C385.146 255.506 386.573 258.25 388.061 260.864L394.774 272.826L404.965 290.138C410.395 287.544 417.329 286.301 423.269 287.92C429.602 289.646 434.477 293.65 437.769 299.29C440.707 304.324 441.516 311.703 440.009 317.336C438.335 323.592 434.224 328.233 428.883 331.694L429.143 332.041C430.893 334.41 432.161 337.399 433.662 339.963L441.41 353.335L446.069 361.217C447.839 364.181 449.626 367.075 450.659 370.393C451.951 374.543 451.942 379.122 451.224 383.38C450.659 386.732 449.011 389.718 447.175 392.534C445.727 394.754 443.027 397.191 440.711 398.458C439.387 399.182 438.21 399.932 436.77 400.458C435.553 401.103 434.148 401.489 432.785 401.686C431.661 401.978 430.436 402.164 429.275 402.197C422.691 402.386 415.919 399.323 411.179 394.88L397.786 396.754L394.508 397.213L394.304 397.259L351 403.333L350.131 403.416C353.666 408.749 356.553 414.581 359.752 420.125L371.272 439.885C373.291 443.515 375.568 447.141 376.746 451.149C377.921 455.143 377.811 460.427 376.939 464.491C376.715 465.535 376.304 466.512 375.912 467.5C372.826 475.284 364.633 479.444 357.818 483.423C355.082 485.021 352.337 486.825 349.407 488.036C347.969 488.63 346.572 489.04 345.027 489.228L341.539 489.784C338.228 490.369 333.806 489.249 330.788 487.93C327.161 486.345 323.885 483.719 321.435 480.622C318.572 477.002 316.469 472.542 314.18 468.535L301.649 446.595L295.178 435.492C294.061 433.583 292.751 431.77 291.954 429.697L291.826 429.358C287.706 431.767 282.708 432.634 278 432.247C275.831 432.069 273.633 431.602 271.568 430.906L271.25 430.795C269.368 430.155 267.772 429.272 266.125 428.164L265.318 427.622C262.572 425.701 260.313 422.7 258.424 419.966C254.717 414.606 251.803 408.464 248.632 402.762C246.403 398.753 243.767 394.865 241.86 390.688C241.169 389.175 240.644 387.476 240.349 385.839C239.655 382.314 239.782 378.56 240.65 375.084ZM348.983 290.375L306.221 344.266C306.97 345.307 307.68 346.293 308.242 347.452L332.918 390.053L333.189 390.004L355.602 386.924L401.781 380.642L375.161 334.349L356.093 301.25L351.561 293.313C350.982 292.338 350.368 290.978 349.475 290.285L348.983 290.375ZM362.468 259.529C360.209 260.235 358.333 261.437 357.144 263.559C356.059 265.496 355.684 267.84 356.382 269.969C357.211 272.499 358.904 274.944 360.225 277.249L369.694 293.269L382.027 314.5L393.826 335.407L411.451 365.702C414.826 371.464 417.961 377.516 421.662 383.069C422.575 384.439 423.773 385.288 425.25 385.979C426.332 386.485 428.704 386.682 429.878 386.469C432.16 385.496 434.645 384.199 435.678 381.793L436.041 380.75L436.165 380.382C436.967 377.904 435.7 375.324 434.553 373.148L423.475 353.949L400.468 314.185L383.125 284.047C379.329 277.31 375.877 269.971 371.379 263.687C370.017 261.784 368.413 260.509 366.163 259.844C364.926 259.479 363.746 259.445 362.468 259.529ZM332.31 406.125L314.738 416.135C311.967 417.752 308.792 419.985 305.75 420.94L304.817 421.244L305.01 421.526C307.207 424.783 309 428.576 310.96 432L322.816 452.375L329.471 464.25C331.286 467.331 332.82 470.644 335.689 472.888L335.951 473.096L336.11 473.216C338.844 474.108 341.359 474.85 344.074 473.424L349.875 470.004C354.167 467.587 357.929 466.014 361.149 462.098C361.698 461.43 361.825 460.83 362.003 460L362.086 459.631C362.29 458.68 362.245 457.96 362.125 457.006L362.084 456.633C361.99 455.862 361.781 455.233 361.433 454.542C358.709 449.138 355.31 443.915 352.299 438.65L339.175 415.823C337.396 412.795 335.557 408.397 332.948 406.125L332.31 406.125ZM293.803 354.375L280.018 362.046L279.834 362.48L280.007 362.648C281.039 363.687 281.579 364.974 282.247 366.255L285.031 371.288L297.978 393.625C299.995 397.096 301.804 400.69 304.26 403.893L318.314 395.737L311.395 383.701L300.43 364.919C298.935 362.314 297.662 359.508 296.069 356.976C295.584 356.206 294.64 354.689 293.803 354.375ZM265.895 370.625C262.238 372.305 257.427 374.158 255.84 378.197C254.809 380.82 255.195 382.487 256.17 384.989C257.543 388.515 260.15 391.896 262.062 395.182C265.723 401.476 268.849 408.614 273.534 414.224C274.361 415.215 275.431 415.887 276.604 416.414C277.573 416.849 278.563 416.895 279.61 416.898C283.965 416.121 286.777 413.607 290.614 411.764L275.067 384.896L269.272 374.755C268.527 373.407 267.61 372.129 267.078 370.679C266.539 370.502 266.45 370.502 265.895 370.625ZM416.058 303.047L412.868 303.768C415.421 308.572 417.522 313.486 421.125 317.647C421.785 317.65 421.665 317.615 422.125 317.217C424.263 314.761 425.322 312.968 425 309.612C424.834 307.891 423.568 305.384 422.144 304.361C420.274 303.016 418.247 302.979 416.058 303.047ZM240.65 375.084C239.782 378.56 239.655 382.314 240.349 385.839L240.428 385.834L240.751 385.749L240.999 385.749C241.318 384.785 241.075 383.421 241.055 382.386L241.123 376.75C240.759 376.202 240.745 375.721 240.65 375.084ZM432.785 401.686C434.148 401.489 435.553 401.103 436.77 400.458C436.545 400.083 436.301 399.796 436 399.479C435.407 399.724 435.2 399.887 434.556 399.806L434.321 399.937C433.479 400.388 432.882 400.504 431.939 400.59C431.551 400.626 431.456 400.765 431.125 400.848L430.417 400.865C428.718 400.852 426.985 400.938 425.312 400.595L425.375 400.877L425.001 401.001L425.001 401.17L429.375 401.472C430.626 401.498 431.682 400.964 432.785 401.686ZM394.508 397.213L397.786 396.754C397.106 396.734 396.419 396.752 395.75 396.625C396.538 395.906 397.528 396.826 397.716 395.79C396.664 395.223 393.91 395.92 392.75 396.24L392.626 396.402C393.35 396.853 393.915 396.661 394.508 397.213ZM341.539 489.784L345.027 489.228C344.228 489.23 343.4 489.297 342.625 489.075C343.244 488.684 343.681 488.746 344.375 488.795L344.556 488.524L344.125 488.2L343.854 488.257C342.283 488.573 340.718 488.567 339.125 488.627L339.173 488.933C339.789 489.012 339.99 488.976 340.5 489.319L341.539 489.784Z"/>
	<path fill="white" fill-opacity="0.96862745" d="M341.539 489.784L340.5 489.319C339.99 488.976 339.789 489.012 339.173 488.933L339.125 488.627C340.718 488.567 342.283 488.573 343.854 488.257L344.125 488.2L344.556 488.524L344.375 488.795C343.681 488.746 343.244 488.684 342.625 489.075C343.4 489.297 344.228 489.23 345.027 489.228L341.539 489.784Z"/>
	<path fill="white" fill-opacity="0.97254902" d="M394.508 397.213C393.915 396.661 393.35 396.853 392.626 396.402L392.75 396.24C393.91 395.92 396.664 395.223 397.716 395.79C397.528 396.826 396.538 395.906 395.75 396.625C396.419 396.752 397.106 396.734 397.786 396.754L394.508 397.213Z"/>
	<path fill="white" fill-opacity="0.96078432" d="M432.785 401.686C431.682 400.964 430.626 401.498 429.375 401.472L425.001 401.17L425.001 401.001L425.375 400.877L425.312 400.595C426.985 400.938 428.718 400.852 430.417 400.865L431.125 400.848C431.456 400.765 431.551 400.626 431.939 400.59C432.882 400.504 433.479 400.388 434.321 399.937L434.556 399.806C435.2 399.887 435.407 399.724 436 399.479C436.301 399.796 436.545 400.083 436.77 400.458C435.553 401.103 434.148 401.489 432.785 401.686Z"/>
	<path fill="white" fill-opacity="0.96470588" d="M240.65 375.084C240.745 375.721 240.759 376.202 241.123 376.75L241.055 382.386C241.075 383.421 241.318 384.785 240.999 385.749L240.751 385.749L240.428 385.834L240.349 385.839C239.655 382.314 239.782 378.56 240.65 375.084Z"/>
	<path fill="white" d="M16.6893 36.3308C17.0192 32.2376 18.9239 28.4028 21.3199 25.125L21.5579 24.7932C24.984 20.0814 30.3545 17.4926 36.0191 16.6192C40.6477 15.9057 45.7564 16.2701 50.4437 16.2685L76.3166 16.2841L165.007 16.3346L318.544 16.3256L366.52 16.3132C375.605 16.2985 384.873 15.8631 393.928 16.5064C398.31 16.8177 402.791 18.5789 406.302 21.1954C408.585 22.8971 410.598 24.9992 411.981 27.5C412.629 28.6705 413.049 29.9616 413.675 31.1279C414.021 31.7734 414.124 32.4082 414.275 33.1171C414.447 33.9276 414.787 34.6778 414.914 35.5C415.976 42.3831 415.412 49.7918 415.452 56.7531C415.467 59.213 415.276 61.9003 415.643 64.3235L431.505 64.2964C441.175 64.314 449.432 63.9529 456.796 71.2547C459.913 74.3451 461.519 77.9648 462.744 82.0939C463.392 84.2791 463.396 86.9636 463.45 89.25L463.412 117.766L463.519 183.057L463.514 206.952L463.519 212.699C463.525 213.627 463.669 214.717 463.425 215.609L448.332 215.548L448.418 135.895L448.027 135.927L415.547 135.759L415.564 231.611L400.356 231.562L400.438 95.9339L31.6221 95.7916L31.6336 96.0638C31.7003 97.9686 31.5208 99.8651 31.5132 101.77L31.5452 116.087L31.4657 167.96L31.5745 314.245L31.5565 367.264L31.532 383.368C31.5213 386.189 31.3077 389.204 31.5578 392.007C31.761 394.286 32.9186 396.454 34.5433 398.014C35.4606 398.894 36.2977 399.372 37.5 399.736L37.9157 399.877C39.8662 400.516 42.1159 400.321 44.1471 400.311L52.26 400.305L78.0493 400.309L179.258 400.269L212.125 400.276L231.438 400.425C231.753 401.747 231.517 403.425 231.494 404.79C231.435 408.371 231.233 412.117 231.604 415.676L79.7259 415.928L79.4616 432.182C79.4506 435.222 79.0522 438.546 79.7596 441.5C80.3238 443.856 81.0568 445.135 83.1388 446.541C85.1913 447.926 87.3216 448.287 89.7264 448.453C93.8447 448.739 98.0825 448.402 102.213 448.326L117.798 448.299L228.472 448.327L265.645 448.353L285.281 448.463C286.181 448.504 286.521 448.472 287.275 449C287.605 450.564 287.443 452.284 287.428 453.88C287.398 457.084 287.228 460.464 287.533 463.65L241.159 463.734L151.718 463.818L109.733 463.908C102.009 463.927 93.7228 464.558 86.0694 463.5C80.032 462.665 75.2881 460.696 70.9085 456.401C68.0178 453.566 65.2815 448.622 64.8878 444.55C64.2023 442.715 64.3915 440.187 64.354 438.23L64.4443 421.732C64.4554 419.973 64.742 417.68 64.2815 415.994L48.5456 415.956C43.7242 415.935 38.1683 416.055 33.5065 414.77C30.4318 413.923 27.7347 412.47 25.25 410.481C21.4235 407.417 18.6676 403.558 17.3594 398.817L16.9625 397C16.1625 393.247 16.4497 389.208 16.4273 385.379L16.3492 368.261L16.3158 300.539L16.3388 42.0417C16.3462 40.3848 16.1532 37.8691 16.6893 36.3308ZM400.248 80.2547L400.451 55.3909C400.491 50.2584 400.971 44.7743 400.214 39.7151C399.922 37.8767 399.472 35.8738 398.125 34.4912C396.918 33.2526 395.319 32.4964 393.625 32.2478L393.207 32.1796C390.615 31.7817 387.89 31.8321 385.271 31.7884L373.356 31.6725L334.471 31.633L201.858 31.6561L86.9239 31.6656L55.7271 31.6677C50.499 31.6683 44.6224 31.1339 39.5 32.0364C36.671 32.5349 35.0468 33.0934 33.3298 35.5324C32.3168 36.9714 31.8473 38.8225 31.6404 40.5527C31.1687 44.4954 31.4752 48.7578 31.4789 52.7407L31.5928 80.2666L400.248 80.2547ZM415.746 79.875L415.527 120.32L437.645 120.335C441.114 120.338 444.865 120.048 448.296 120.427L448.358 99.3474C448.374 95.5872 448.7 91.5453 448.125 87.8351C447.717 85.204 447.074 83.0508 444.801 81.375C441.293 78.7882 431.914 79.6657 427.544 79.753L416.047 79.8304L415.746 79.875ZM16.6893 36.3308C16.1532 37.8691 16.3462 40.3848 16.3388 42.0417L16.3158 300.539L16.3492 368.261L16.4273 385.379C16.4497 389.208 16.1625 393.247 16.9625 397L17.3594 398.817L17.5506 398.729L17.875 398.873L18.1225 398.625C18.1528 397.707 18.0506 396.909 17.875 396.008C17.2787 392.948 17.563 389.176 17.5495 386.041L17.507 368.377L17.486 300.987L17.4972 41L17.125 40.6275C17.1192 40.1012 17.1575 40.2531 17.058 39.864C16.751 38.6625 16.9531 37.5152 16.6893 36.3308ZM400.214 39.7151C400.971 44.7743 400.491 50.2584 400.451 55.3909L400.248 80.2547C400.516 80.2209 400.801 80.0889 401.057 80L401.127 74.875L401.289 75.4984L401.472 75.375L401.55 54.0369L401.589 45.9151C401.636 43.6863 401.926 39.8823 400.875 37.8775C400.494 38.4506 400.389 39.0567 400.214 39.7151ZM64.2815 415.994C64.742 417.68 64.4554 419.973 64.4443 421.732L64.354 438.23C64.3915 440.187 64.2023 442.715 64.8878 444.55L65.0964 444.422L65.4755 444.625C65.6418 444.306 65.7185 444.066 65.7123 443.702L65.4709 432.63C65.4999 428.683 65.812 424.481 65.4522 420.562L65.1275 420.625C65.1349 419.156 65.2236 417.647 65.001 416.192L64.2815 415.994Z"/>
	<path fill="white" fill-opacity="0.94509804" d="M64.2815 415.994L65.001 416.192C65.2236 417.647 65.1349 419.156 65.1275 420.625L65.4522 420.562C65.812 424.481 65.4999 428.683 65.4709 432.63L65.7123 443.702C65.7185 444.066 65.6418 444.306 65.4755 444.625L65.0964 444.422L64.8878 444.55C64.2023 442.715 64.3915 440.187 64.354 438.23L64.4443 421.732C64.4554 419.973 64.742 417.68 64.2815 415.994Z"/>
	<path fill="white" fill-opacity="0.96078432" d="M400.214 39.7151C400.389 39.0567 400.494 38.4506 400.875 37.8775C401.926 39.8823 401.636 43.6863 401.589 45.9151L401.55 54.0369L401.472 75.375L401.289 75.4984L401.127 74.875L401.057 80C400.801 80.0889 400.516 80.2209 400.248 80.2547L400.451 55.3909C400.491 50.2584 400.971 44.7743 400.214 39.7151Z"/>
	<path fill="white" fill-opacity="0.96078432" d="M16.6893 36.3308C16.9531 37.5152 16.751 38.6625 17.058 39.864C17.1575 40.2531 17.1192 40.1012 17.125 40.6275L17.4972 41L17.486 300.987L17.507 368.377L17.5495 386.041C17.563 389.176 17.2787 392.948 17.875 396.008C18.0506 396.909 18.1528 397.707 18.1225 398.625L17.875 398.873L17.5506 398.729L17.3594 398.817L16.9625 397C16.1625 393.247 16.4497 389.208 16.4273 385.379L16.3492 368.261L16.3158 300.539L16.3388 42.0417C16.3462 40.3848 16.1532 37.8691 16.6893 36.3308Z"/>
	<path fill="white" fill-opacity="0.96470588" d="M129.541 63.6562L128.75 63.5803L128.413 63.125L128.404 53.4887C128.405 51.9161 128.163 49.9115 128.625 48.4063L129.502 48.2624L129.541 63.6562Z"/>
	<defs>
		<linearGradient id="gradient_2" gradientUnits="userSpaceOnUse" x1="65.287773" y1="54.375278" x2="64.71225" y2="54.371037">
			<stop offset="0" stop-color="white" stop-opacity="0.96470588"/>
			<stop offset="1" stop-color="white"/>
		</linearGradient>
	</defs>
	<path fill="url(#gradient_2)" d="M65.5408 63.5308C64.8788 63.5291 64.8398 63.6027 64.3638 63.1595L64.328 52.724C64.329 51.4397 64.1027 49.5196 64.5507 48.328L65.5408 48.3182L65.5052 58.4724C65.5126 60.1253 65.726 61.8978 65.5408 63.5308Z"/>
	<defs>
		<linearGradient id="gradient_3" gradientUnits="userSpaceOnUse" x1="97.300842" y1="54.499508" x2="96.769417" y2="54.504654">
			<stop offset="0" stop-color="white" stop-opacity="0.96078432"/>
			<stop offset="1" stop-color="white"/>
		</linearGradient>
	</defs>
	<path fill="url(#gradient_3)" d="M97.5408 63.6882L96.5323 63.6722L96.3254 63.25C95.9863 62.1277 96.2863 49.2432 96.5961 48.375L97.6549 48.1912C97.1513 51.8255 97.4467 56.0063 97.4921 59.689C97.5077 60.9554 97.7083 62.4563 97.5408 63.6882Z"/>
	<path fill="white" d="M65.5408 48.3182L79.5259 48.4106C79.5022 50.271 79.669 63.318 79.4919 63.5938L69.4418 63.5953C68.3065 63.5973 66.6001 63.8209 65.5408 63.5308C65.726 61.8978 65.5126 60.1253 65.5052 58.4724L65.5408 48.3182Z"/>
	<path fill="white" d="M129.502 48.2624L143.61 48.4351L143.651 63.583L129.541 63.6562L129.502 48.2624Z"/>
	<path fill="white" d="M97.6549 48.1912L97.9471 48.2167C102.419 48.5728 107.073 47.9431 111.502 48.493L111.654 63.5989L97.5408 63.6882C97.7083 62.4563 97.5077 60.9554 97.4921 59.689C97.4467 56.0063 97.1513 51.8255 97.6549 48.1912Z"/>
</svg>
