<?xml version="1.0" encoding="utf-8" ?>
<svg xmlns="http://www.w3.org/2000/svg" xmlns:xlink="http://www.w3.org/1999/xlink" width="225" height="225">
	<path d="M194.961 151.258C185.029 172.053 168.303 188.482 146.814 197.121C124.406 206.13 98.4786 205.91 76.3104 196.169C54.136 186.425 36.1251 168.652 27.4758 145.843C24.657 138.409 22.5952 130.593 21.7112 122.685C21.3583 119.528 21.4281 116.276 21.4299 113.101C21.4374 100.064 23.6188 87.5378 29.0495 75.6016C39.1428 53.4172 56.8122 35.6661 79.8282 27.0832C102.079 18.7857 127.977 19.203 149.662 29.1333C170.776 38.8021 188.963 56.4282 197.151 78.4073C203.401 93.7043 205.411 112.109 202.119 128.338C201.394 134.097 199.632 139.767 197.617 145.191C196.872 147.195 196.139 149.474 194.961 151.258ZM52.3449 55.125C52.3345 55.4498 52.375 55.737 52.5643 56.0068L67.7483 76.3761L87.4088 102.865L93.6867 111.247C95.3355 113.562 96.9031 116.089 98.8713 118.145L99.406 118.648L67.9534 152.41L55.9208 165.252C54.4164 166.824 53.0279 168.599 51.3849 170.019C54.1557 169.656 57.0415 169.849 59.8365 169.831C60.4581 169.827 62.0697 170.002 62.5892 169.674C63.1692 169.308 63.9411 168.184 64.4254 167.652L69.5684 162.092L92.6658 137.024C96.3483 133.057 99.9455 128.645 104.021 125.092L137.058 169.897L169.562 169.962C170.846 169.907 172.07 169.88 173.35 170.023L123.479 103.638L134.725 91.7828L160.896 63.9861C163.662 61.1596 166.241 57.3867 169.406 55.0594C167.808 55.2381 159.026 54.6375 158.477 55.0366C157.753 55.5634 157.022 56.7514 156.385 57.4552L150.277 64.0964L130.141 85.6907L118.898 97.8554C116.936 94.8099 114.566 91.9818 112.428 89.0519L96.5498 67.7153L90.7238 59.8097C89.577 58.2317 88.2921 56.7583 87.4102 55.0054L62.6173 55.0222L56.1156 55.1723C54.8884 55.213 53.5469 55.3877 52.3449 55.125ZM197.151 78.4073L196.749 78.5601L196.375 78.3775L196.127 78.75C196.258 79.0756 196.31 80.2075 196.325 80.2206C196.806 80.6367 196.877 80.7944 196.918 81.422C196.962 82.0871 197.274 82.4319 197.127 83.125L197.688 83.8738L197.544 84.2488C197.695 84.4752 198.057 84.8833 198.127 85.125C198.285 85.6662 198.041 86.1871 198.324 86.7644C198.434 86.9898 198.469 87.2537 198.519 87.4988C199.065 87.8815 199.064 88.5806 199.182 89.2251C199.244 89.5645 199.255 89.7872 199.162 90.125L199.266 90.3127C199.446 90.6562 199.447 91.3738 199.625 91.6225C199.687 91.7097 199.854 91.6658 199.92 91.75C200.236 92.1528 200.218 93.8684 200.127 94.375C200.571 95.0409 200.171 95.9946 200.537 96.4942C200.795 96.8466 200.933 97.0759 201.019 97.4988L201.052 97.6484C201.23 98.5038 201.257 99.5117 201.127 100.375C201.557 101.019 201.214 102.004 201.567 102.472C203.231 104.678 202.346 115.711 202.375 118.877C201.959 119.503 202.135 120.444 202.094 121.197C202.03 122.384 201.838 123.59 201.835 124.856L201.42 124.874L201.377 125.709C201.377 126.076 201.264 126.991 201.482 127.244C201.786 127.598 201.981 127.886 202.119 128.338C205.411 112.109 203.401 93.7043 197.151 78.4073ZM194.961 151.258C196.139 149.474 196.872 147.195 197.617 145.191C199.632 139.767 201.394 134.097 202.119 128.338C201.981 127.886 201.786 127.598 201.482 127.244C201.264 126.991 201.377 126.076 201.377 125.709C201.191 126.304 201.086 126.746 201.125 127.377L201.009 127.532C200.869 127.728 200.845 127.875 200.791 128.102C200.747 128.288 200.76 128.228 200.677 128.412C200.263 129.329 200.458 130.281 200.34 131.252C200.227 132.178 199.717 132.976 199.543 133.875C199.382 134.704 199.473 135.442 199.145 136.25C198.915 136.813 198.579 137.537 198.459 138.125C198.373 138.547 198.497 139.2 198.259 139.532C198.121 139.726 198.113 139.871 198.053 140.094C197.941 140.505 197.612 140.838 197.485 141.25C197.308 141.824 197.419 142.316 197.127 142.875C197.012 143.096 196.93 143.302 196.78 143.506C196.266 144.2 196.556 144.928 196.035 145.619C195.745 146.003 195.865 146.377 195.466 146.75L195.437 146.947C195.346 147.548 195.236 147.877 194.875 148.377C194.346 149.11 194.447 149.875 193.877 150.625L194.375 151.123L194.709 150.925L194.961 151.258Z"/>
	<path d="M194.961 151.258L194.709 150.925L194.375 151.123L193.877 150.625C194.447 149.875 194.346 149.11 194.875 148.377C195.236 147.877 195.346 147.548 195.437 146.947L195.466 146.75C195.865 146.377 195.745 146.003 196.035 145.619C196.556 144.928 196.266 144.2 196.78 143.506C196.93 143.302 197.012 143.096 197.127 142.875C197.419 142.316 197.308 141.824 197.485 141.25C197.612 140.838 197.941 140.505 198.053 140.094C198.113 139.871 198.121 139.726 198.259 139.532C198.497 139.2 198.373 138.547 198.459 138.125C198.579 137.537 198.915 136.813 199.145 136.25C199.473 135.442 199.382 134.704 199.543 133.875C199.717 132.976 200.227 132.178 200.34 131.252C200.458 130.281 200.263 129.329 200.677 128.412C200.76 128.228 200.747 128.288 200.791 128.102C200.845 127.875 200.869 127.728 201.009 127.532L201.125 127.377C201.086 126.746 201.191 126.304 201.377 125.709C201.377 126.076 201.264 126.991 201.482 127.244C201.786 127.598 201.981 127.886 202.119 128.338C201.394 134.097 199.632 139.767 197.617 145.191C196.872 147.195 196.139 149.474 194.961 151.258Z"/>
	<path d="M197.151 78.4073C203.401 93.7043 205.411 112.109 202.119 128.338C201.981 127.886 201.786 127.598 201.482 127.244C201.264 126.991 201.377 126.076 201.377 125.709L201.42 124.874L201.835 124.856C201.838 123.59 202.03 122.384 202.094 121.197C202.135 120.444 201.959 119.503 202.375 118.877C202.346 115.711 203.231 104.678 201.567 102.472C201.214 102.004 201.557 101.019 201.127 100.375C201.257 99.5117 201.23 98.5038 201.052 97.6484L201.019 97.4988C200.933 97.0759 200.795 96.8466 200.537 96.4942C200.171 95.9946 200.571 95.0409 200.127 94.375C200.218 93.8684 200.236 92.1528 199.92 91.75C199.854 91.6658 199.687 91.7097 199.625 91.6225C199.447 91.3738 199.446 90.6562 199.266 90.3127L199.162 90.125C199.255 89.7872 199.244 89.5645 199.182 89.2251C199.064 88.5806 199.065 87.8815 198.519 87.4988C198.469 87.2537 198.434 86.9898 198.324 86.7644C198.041 86.1871 198.285 85.6662 198.127 85.125C198.057 84.8833 197.695 84.4752 197.544 84.2488L197.688 83.8738L197.127 83.125C197.274 82.4319 196.962 82.0871 196.918 81.422C196.877 80.7944 196.806 80.6367 196.325 80.2206C196.31 80.2075 196.258 79.0756 196.127 78.75L196.375 78.3775L196.749 78.5601L197.151 78.4073Z"/>
	<path d="M67.6337 63.1311C69.4269 63.2613 83.6672 62.9989 84.1114 63.385C86.0198 65.044 87.7661 68.0206 89.3007 70.071L100.55 85.136L140.236 138.094C141.949 140.36 156.795 160.119 156.912 161.125C155.147 160.862 153.164 160.991 151.379 160.99L141.532 161.032C140.384 159.02 138.781 157.087 137.391 155.228L128.753 143.95L104.182 111.429L76.605 74.8591C73.6045 70.9844 70.8665 66.8065 67.6337 63.1311Z"/>
</svg>
