<?xml version="1.0" standalone="no"?>
<!DOCTYPE svg PUBLIC "-//W3C//DTD SVG 20010904//EN"
 "http://www.w3.org/TR/2001/REC-SVG-20010904/DTD/svg10.dtd">
<svg version="1.0" xmlns="http://www.w3.org/2000/svg"
 width="512.000000pt" height="512.000000pt" viewBox="0 0 512.000000 512.000000"
 preserveAspectRatio="xMidYMid meet">

<g transform="translate(0.000000,512.000000) scale(0.100000,-0.100000)"
fill="#ffff" stroke="none">
<path d="M2170 4636 c-505 -192 -854 -331 -867 -344 -28 -26 -30 -72 -5 -100
9 -11 206 -106 437 -211 l420 -190 5 -54 c6 -66 18 -81 83 -105 137 -51 785
-272 798 -272 22 0 821 279 846 295 24 16 31 36 35 98 l3 38 340 154 c187 86
347 158 357 161 17 5 18 -5 18 -130 l0 -136 80 0 80 0 0 214 c0 189 -2 216
-17 235 -20 22 -1712 672 -1748 670 -11 0 -400 -146 -865 -323z m1593 -117
c392 -149 720 -274 731 -278 13 -5 -60 -43 -271 -139 -159 -73 -293 -132 -296
-132 -4 0 -7 67 -7 149 0 127 -3 152 -17 170 -26 31 -383 137 -583 173 -116
20 -469 17 -595 -6 -82 -15 -351 -88 -503 -137 -53 -17 -62 -48 -62 -209 0
-77 -3 -140 -7 -140 -14 0 -586 264 -577 267 5 2 333 127 729 278 396 151 726
274 733 275 7 0 333 -122 725 -271z m-803 -479 l0 -280 80 0 80 0 0 280 c0
225 3 280 13 280 7 0 65 -7 127 -15 116 -15 227 -42 403 -96 l97 -30 0 -203 0
-203 -352 -122 c-194 -66 -360 -121 -368 -121 -8 0 -174 55 -368 122 l-352
121 2 205 3 206 25 7 c14 3 88 25 165 47 165 48 303 75 413 80 l32 2 0 -280z"/>
<path d="M1390 3924 c-345 -102 -640 -287 -885 -553 -376 -411 -559 -979 -489
-1523 56 -432 241 -812 543 -1118 512 -516 1259 -697 1956 -473 564 181 1028
639 1220 1205 135 398 138 809 8 1213 -67 210 -208 467 -347 630 l-53 62 -59
-52 c-66 -59 -67 -44 12 -140 133 -160 261 -412 319 -627 111 -410 73 -842
-106 -1218 -55 -116 -86 -167 -168 -284 l-56 -79 -5 225 -5 225 -29 37 c-44
58 -73 66 -249 66 l-153 0 -148 220 c-122 183 -153 223 -186 240 -36 18 -59
20 -250 20 -238 0 -260 -5 -306 -66 -29 -37 -29 -40 -32 -186 l-3 -148 80 0
81 0 0 120 0 120 178 0 178 0 148 -220 c182 -273 163 -260 381 -260 l155 0 0
-284 0 -284 -67 -57 c-497 -415 -1165 -526 -1773 -294 l-78 30 107 322 108
322 69 3 70 3 68 -101 c89 -132 109 -143 251 -138 92 3 105 5 137 30 63 48 68
70 68 312 l0 216 -80 0 -80 0 0 -200 0 -200 -58 0 -58 0 -68 100 c-86 127
-108 140 -238 140 -51 0 -110 -5 -130 -10 -71 -20 -87 -51 -203 -399 -59 -177
-109 -321 -112 -321 -4 0 -49 29 -102 64 -417 278 -681 691 -773 1206 -18 107
-15 408 6 534 57 340 207 648 440 908 l61 67 56 -109 c30 -60 64 -119 75 -131
34 -37 80 -49 195 -49 l108 0 3 -228 3 -229 27 -35 c50 -66 63 -68 379 -68
265 0 285 1 325 21 24 11 52 35 63 52 10 18 63 134 116 260 l97 227 190 0
c214 0 239 6 286 68 25 33 27 44 30 144 l4 108 -81 0 -81 0 0 -80 0 -80 -187
0 c-214 0 -253 -10 -290 -71 -12 -19 -65 -136 -118 -261 l-97 -228 -254 0
-253 0 -3 228 -3 229 -29 37 c-41 55 -77 66 -206 66 l-110 0 -61 122 c-47 94
-58 123 -47 129 7 5 54 38 103 73 152 110 378 217 543 256 28 6 54 16 57 20 8
13 -28 150 -39 149 -6 0 -49 -11 -96 -25z"/>
<path d="M4625 3736 c-60 -28 -97 -66 -124 -126 -18 -38 -21 -66 -21 -187 l0
-143 80 0 80 0 0 133 c0 120 2 135 20 155 42 44 105 37 129 -15 6 -13 11 -78
11 -148 l0 -125 80 0 80 0 0 143 c0 128 -2 147 -24 192 -59 125 -193 177 -311
121z"/>
<path d="M4456 3118 c-8 -13 -35 -59 -60 -103 l-45 -79 66 -39 c42 -24 70 -34
76 -28 5 5 33 51 63 102 l53 93 -65 38 c-36 21 -67 38 -70 38 -2 0 -10 -10
-18 -22z"/>
<path d="M4893 3101 l-62 -37 54 -93 c29 -51 57 -97 62 -102 6 -6 34 4 76 29
l66 38 -57 99 c-31 54 -62 99 -67 101 -6 1 -38 -15 -72 -35z"/>
<path d="M4640 2920 l0 -120 80 0 80 0 0 120 0 120 -80 0 -80 0 0 -120z"/>
<path d="M2744 2775 c-84 -43 -197 -128 -218 -164 -36 -61 -27 -110 43 -251
35 -69 74 -139 87 -157 23 -31 350 -236 428 -268 25 -11 75 -15 172 -15 155 0
187 10 232 68 25 33 27 43 30 157 2 68 -1 140 -7 163 -16 58 -64 95 -167 129
l-86 28 -60 120 c-103 207 -115 215 -291 215 -101 0 -118 -3 -163 -25z m316
-275 c48 -94 81 -146 101 -160 16 -12 66 -34 112 -49 l82 -28 3 -91 3 -92
-110 0 -109 0 -180 108 -180 107 -58 117 c-36 74 -55 121 -49 127 6 4 41 29
80 55 69 45 71 46 152 46 l82 0 71 -140z"/>
<path d="M3920 2480 l0 -80 40 0 40 0 0 -320 0 -320 -40 0 -40 0 0 -80 0 -80
160 0 160 0 0 -240 0 -240 -280 0 -280 0 0 -80 0 -80 160 0 160 0 0 -320 0
-320 -560 0 -560 0 0 -80 0 -80 903 0 902 0 50 24 c60 27 106 77 129 138 15
39 17 82 14 341 l-3 297 25 0 c36 0 120 43 152 76 60 65 68 99 68 324 0 194
-1 208 -24 255 -25 54 -74 103 -123 124 -28 11 -31 16 -22 38 5 13 9 151 9
306 0 276 -1 283 -24 332 -28 60 -66 97 -126 124 -43 20 -64 21 -467 21 l-423
0 0 -80z m400 -400 l0 -320 -80 0 -80 0 0 320 0 320 80 0 80 0 0 -320z m441
307 c36 -27 39 -52 39 -307 0 -255 -3 -280 -39 -307 -11 -8 -60 -12 -148 -13
l-133 0 0 320 0 320 133 0 c88 -1 137 -5 148 -13z m-201 -1027 l0 -240 -80 0
-80 0 0 240 0 240 80 0 80 0 0 -240z m361 227 c34 -26 39 -54 39 -227 0 -233
-4 -239 -147 -240 l-93 0 0 240 0 240 93 0 c56 -1 98 -5 108 -13z m-601 -947
l0 -320 -80 0 -80 0 0 320 0 320 80 0 80 0 0 -320z m361 307 c36 -27 39 -52
39 -307 0 -323 2 -319 -147 -320 l-93 0 0 320 0 320 93 0 c56 -1 98 -5 108
-13z"/>
<path d="M494 2306 c-17 -8 -44 -31 -60 -52 -28 -36 -29 -41 -32 -173 -2 -85
1 -151 8 -176 9 -31 46 -75 163 -194 92 -93 168 -161 192 -172 34 -16 66 -19
226 -19 263 0 260 -2 368 219 85 173 84 204 -15 310 -64 69 -117 101 -166 101
-18 0 -85 -14 -148 -30 -63 -16 -115 -28 -116 -27 0 1 -29 44 -64 95 -81 119
-104 132 -232 132 -56 -1 -106 -6 -124 -14z m239 -230 c31 -46 71 -95 89 -109
54 -41 84 -42 225 -7 l127 31 44 -44 44 -44 -56 -111 -56 -112 -157 0 -158 0
-137 137 -138 138 0 102 0 103 58 0 59 0 56 -84z"/>
</g>
</svg>
