<?xml version="1.0" standalone="no"?>
<!DOCTYPE svg PUBLIC "-//W3C//DTD SVG 20010904//EN"
 "http://www.w3.org/TR/2001/REC-SVG-20010904/DTD/svg10.dtd">
<svg version="1.0" xmlns="http://www.w3.org/2000/svg"
 width="512.000000pt" height="512.000000pt" viewBox="0 0 512.000000 512.000000"
 preserveAspectRatio="xMidYMid meet">

<g transform="translate(0.000000,512.000000) scale(0.100000,-0.100000)"
fill="#000000" stroke="none">
<path d="M2640 4880 c-20 -20 -20 -33 -20 -604 0 -550 1 -585 18 -606 16 -20
32 -24 124 -31 58 -5 127 -13 154 -19 615 -134 991 -757 819 -1355 -85 -296
-284 -534 -560 -672 -139 -70 -247 -99 -411 -112 -78 -6 -109 -12 -124 -26
-20 -18 -20 -30 -20 -607 0 -575 0 -588 20 -608 19 -19 33 -20 208 -20 179 0
190 1 208 21 10 12 49 98 85 191 l65 171 90 27 c111 33 246 89 341 141 40 21
77 39 82 39 6 0 88 -34 182 -76 130 -58 177 -74 197 -69 17 4 115 94 260 238
206 207 232 236 232 265 0 18 -32 105 -74 199 l-74 168 67 136 c37 75 84 190
106 255 21 66 39 120 40 122 1 1 78 32 171 68 112 43 177 73 192 90 22 25 22
27 22 353 0 310 -1 330 -19 353 -14 17 -69 44 -183 87 -90 34 -169 65 -174 69
-6 4 -28 60 -49 126 -22 65 -69 180 -106 255 l-67 136 74 168 c42 94 74 181
74 199 0 29 -26 58 -232 265 -145 144 -243 234 -260 238 -20 5 -67 -11 -197
-69 -94 -42 -176 -76 -181 -76 -6 0 -47 20 -93 44 -96 51 -241 110 -346 141
l-75 22 -65 170 c-36 94 -75 180 -85 192 -18 20 -29 21 -208 21 -175 0 -189
-1 -208 -20z m350 -247 c23 -60 51 -133 62 -163 11 -30 28 -63 37 -73 10 -10
64 -32 122 -48 127 -37 287 -104 393 -164 45 -26 91 -45 108 -45 17 0 102 32
190 71 l161 71 177 -178 178 -179 -74 -165 c-41 -91 -74 -174 -74 -185 0 -11
10 -36 21 -55 76 -124 178 -367 208 -497 7 -28 20 -58 30 -67 9 -8 91 -44 181
-79 l165 -63 0 -254 0 -254 -165 -63 c-90 -35 -172 -71 -181 -79 -9 -8 -24
-45 -34 -82 -33 -124 -85 -256 -155 -390 -39 -74 -70 -142 -70 -151 0 -9 33
-90 74 -181 l74 -165 -178 -179 -179 -179 -159 71 c-88 40 -173 72 -189 72
-17 0 -64 -20 -109 -45 -105 -60 -266 -127 -393 -164 -58 -16 -112 -38 -122
-48 -9 -10 -26 -43 -37 -73 -11 -30 -39 -103 -62 -162 l-41 -108 -85 0 -84 0
0 468 0 469 106 17 c348 57 649 249 841 538 418 628 188 1473 -491 1803 -125
61 -240 97 -368 115 l-88 12 0 469 0 469 84 0 85 0 41 -107z"/>
<path d="M1704 4772 c-207 -73 -346 -244 -373 -460 -13 -104 9 -234 54 -322
28 -54 106 -147 154 -184 l51 -38 0 -98 0 -98 -127 1 c-239 1 -328 -50 -562
-320 -41 -47 -79 -80 -113 -97 l-52 -26 -303 0 -304 0 -24 -25 -25 -24 0 -651
0 -651 25 -24 24 -25 274 0 274 0 49 -39 c190 -150 412 -186 782 -127 l82 13
0 -66 0 -66 -51 -30 c-111 -65 -222 -217 -265 -360 -27 -91 -25 -249 5 -345
29 -94 47 -130 106 -208 46 -62 130 -134 192 -166 39 -20 83 -21 109 -2 18 13
19 32 24 292 l5 277 83 49 83 50 85 -49 84 -48 0 -268 0 -268 25 -24 c16 -17
35 -25 57 -25 74 0 241 147 306 267 68 128 91 307 57 451 -33 139 -132 284
-248 363 l-66 44 -1 82 c0 80 1 83 28 97 49 25 110 100 126 157 20 66 20 82 0
148 l-15 52 44 40 c60 52 88 114 88 193 0 34 -6 75 -13 91 -12 26 -11 29 12
44 145 91 172 284 58 404 l-39 41 16 40 c21 51 22 151 2 197 -40 95 -137 159
-244 159 l-63 0 0 293 0 293 29 17 c48 28 138 133 170 199 48 99 64 178 58
283 -9 154 -66 276 -179 380 -149 138 -363 183 -554 117z m348 -169 c84 -40
151 -107 192 -193 28 -59 31 -74 31 -165 0 -81 -4 -109 -22 -148 -37 -80 -84
-136 -154 -183 -37 -24 -70 -51 -73 -60 -3 -9 -6 -103 -6 -210 0 -107 -2 -194
-5 -194 -3 0 -26 15 -52 34 -51 35 -114 61 -175 71 l-38 6 0 137 c0 158 -2
164 -84 216 -237 151 -240 499 -6 661 70 49 134 66 235 63 77 -3 100 -8 157
-35z m-437 -1197 c108 -8 194 -19 215 -28 47 -20 95 -69 128 -132 l27 -51 3
-272 3 -271 -28 -31 c-50 -56 -124 -58 -174 -5 -24 25 -24 27 -29 286 -5 258
-5 260 -29 279 -31 25 -79 24 -108 -3 -21 -19 -23 -31 -23 -107 -1 -179 -31
-299 -88 -354 -46 -44 -98 -59 -225 -66 -115 -6 -119 -7 -144 -35 -30 -35 -26
-80 10 -110 20 -16 35 -18 147 -13 69 3 135 9 147 12 18 6 24 0 41 -37 11 -23
35 -58 54 -76 l36 -34 -20 -51 c-28 -73 -21 -161 19 -225 l29 -47 -30 -49
c-27 -42 -31 -58 -31 -120 0 -39 4 -85 8 -102 l8 -30 -78 -12 c-326 -49 -474
-32 -626 72 l-62 42 -3 571 -2 570 65 32 c52 26 84 53 162 138 186 203 226
234 327 259 65 16 59 16 271 0z m698 -401 c29 -30 36 -58 25 -102 -12 -47 -47
-66 -121 -67 l-62 -1 -3 98 -3 97 69 0 c61 0 72 -3 95 -25z m-1683 -575 l0
-540 -195 0 -195 0 0 540 0 540 195 0 195 0 0 -540z m1761 211 c54 -55 29
-139 -49 -161 -39 -10 -282 -14 -282 -4 0 3 12 20 27 38 32 38 62 103 63 134
0 21 3 22 106 22 103 0 106 -1 135 -29z m-717 -140 l21 -24 -22 12 c-13 6 -30
25 -38 41 -20 39 -19 51 2 20 9 -14 26 -36 37 -49z m590 -217 c37 -37 37 -101
0 -138 l-27 -26 -239 0 -240 0 -29 29 c-21 22 -29 39 -29 66 0 27 8 44 29 66
l29 29 240 0 239 0 27 -26z m-144 -337 c23 -8 41 -24 54 -48 23 -42 17 -79
-19 -115 -24 -24 -27 -24 -210 -24 l-187 0 -29 29 c-21 21 -29 39 -29 64 0 44
39 94 78 100 63 9 309 5 342 -6z m-103 -457 c4 -145 4 -145 71 -179 116 -58
201 -157 242 -281 30 -90 25 -227 -12 -318 -25 -60 -85 -151 -100 -152 -5 0
-8 94 -8 209 0 184 -2 211 -17 229 -28 33 -279 172 -309 172 -30 0 -281 -139
-311 -172 -16 -18 -19 -45 -23 -232 l-5 -211 -34 45 c-79 106 -112 230 -93
352 22 147 124 291 247 352 79 39 85 51 85 184 l0 113 133 -3 132 -3 2 -105z"/>
<path d="M1735 4510 c-66 -38 -128 -79 -137 -91 -15 -18 -18 -43 -18 -174 0
-131 2 -156 18 -173 22 -27 238 -152 274 -159 21 -4 53 10 140 58 62 35 125
75 140 87 l28 24 0 162 c0 115 -4 167 -12 178 -22 27 -260 158 -287 158 -14 0
-80 -32 -146 -70z m223 -144 l62 -37 0 -84 0 -83 -62 -37 c-35 -21 -68 -38
-73 -38 -6 0 -40 17 -78 38 l-67 39 0 82 0 82 72 40 c40 23 75 39 78 38 3 -2
33 -20 68 -40z"/>
<path d="M375 2885 c-48 -47 -18 -128 52 -141 27 -5 37 -1 63 24 38 39 40 83
5 117 -33 34 -87 34 -120 0z"/>
</g>
</svg>
