<?xml version="1.0" encoding="utf-8" ?>
<svg xmlns="http://www.w3.org/2000/svg" xmlns:xlink="http://www.w3.org/1999/xlink" width="719" height="408">
	<path fill="#346600" transform="scale(2.41275 2.4142)" d="M126.272 17.3631L177.703 17.4795L177.971 42.2646L175.562 42.2514L123.588 42.1669C123.786 39.8694 123.608 37.4508 123.611 35.1395L123.687 22.2427C123.695 20.9198 123.36 18.7121 123.769 17.533C124.557 17.3456 125.462 17.3929 126.272 17.3631Z"/>
	<path fill="#FE0000" transform="scale(2.41275 2.4142)" d="M123.6 129.742L177.791 129.784L177.94 154.758L123.533 154.749L123.6 129.742Z"/>
	<path fill="#346600" transform="scale(2.41275 2.4142)" d="M123.56 92.2484L177.826 92.3121L177.92 117.287L123.62 117.201L123.56 92.2484Z"/>
	<path fill="#FE0000" transform="scale(2.41275 2.4142)" d="M190.553 92.4297C193.887 92.6843 197.47 93.109 200.65 94.1913C205.72 95.917 210.148 99.3344 213.839 103.138C218.842 108.295 221.646 116.876 221.464 124C221.251 132.31 218.34 139.766 212.347 145.519C208.804 148.672 204.357 151.954 199.764 153.269C196.928 154.08 193.69 154.247 190.764 154.512C190.382 153.909 190.548 152.117 190.537 151.376L190.51 140.766L190.553 92.4297Z"/>
	<path fill="#FE0000" transform="scale(2.41275 2.4142)" d="M123.763 54.875C125.507 55.1106 127.635 54.8616 129.421 54.886L147.963 54.924L205.083 54.9515L216.628 54.8853C218.095 54.8643 220.322 54.5351 221.72 54.9175L221.727 79.821L123.583 79.8343L123.551 64.2786C123.556 61.3675 123.142 57.6823 123.763 54.875Z"/>
	<path fill="#346600" transform="scale(2.41275 2.4142)" d="M109.034 17.6097C109.662 17.5628 110.202 17.3946 110.738 17.75L110.763 38.3201L110.814 78.7906L110.943 104.432C110.947 108.661 111.237 113.126 110.733 117.325C108.626 116.901 106.477 116.716 104.375 116.246C97.3583 114.676 91.9978 111.258 87.234 105.916C84.19 102.853 81.8112 97.2616 80.8509 93.0999C79.322 86.4744 79.9766 79.4647 82.7645 73.25C83.7102 71.1418 84.9922 69.2022 86.2128 67.247C82.6309 62.4312 80.423 56.1211 80.0173 50.142C79.4863 42.3167 82.4615 33.7131 87.6147 27.8033C92.9919 21.6365 100.984 18.1827 109.034 17.6097Z"/>
</svg>
